<svg xmlns="http://www.w3.org/2000/svg" viewBox="0 0 40 48">
  <title>Apple Calendar</title>
  <path d="M39.05 16.87V15.5l-.01-1.15a16.8 16.8 0 0 0-.23-2.5 8.42 8.42 0 0 0-.78-2.38 7.98 7.98 0 0 0-3.5-3.5 8.39 8.39 0 0 0-2.38-.78 16.8 16.8 0 0 0-2.5-.23l-1.15-.01h-17l-1.15.01a16.8 16.8 0 0 0-2.5.23 8.45 8.45 0 0 0-2.38.78 7.98 7.98 0 0 0-3.5 3.5 8.48 8.48 0 0 0-.79 2.38 16.56 16.56 0 0 0-.22 2.5L.95 15.5v17l.01 1.15a16.8 16.8 0 0 0 .23 2.5 8.4 8.4 0 0 0 .78 2.38 8 8 0 0 0 3.5 3.5 8.39 8.39 0 0 0 2.37.78 16.8 16.8 0 0 0 2.5.23l1.15.01H28.5l1.15-.01a16.8 16.8 0 0 0 2.5-.23 8.45 8.45 0 0 0 2.38-.78 8 8 0 0 0 3.5-3.5 8.48 8.48 0 0 0 .78-2.38 16.77 16.77 0 0 0 .22-2.5l.02-1.15V16.87Z" fill="#fff"/>
  <path d="M15.17 36.12V18.4h-.75l-4.51 3v.75l4.46-2.92h.06v16.9h.74ZM19.58 18.4v.67h9.74v.06l-7.82 17h.83L30.1 19.1v-.72Z"/>
  <path d="M7.87 14.91v-3.83h.01l1.52 3.44h.5l1.5-3.44h.03v3.83h.5V9.84h-.54L9.65 13.9h-.01L7.89 9.84h-.52v5.07ZM14.67 10.95a1.63 1.63 0 0 0-1.65 1.82v.38a1.66 1.66 0 1 0 3.29 0v-.38a1.62 1.62 0 0 0-1.64-1.82Zm0 .48c.69 0 1.1.52 1.1 1.37v.32c0 .85-.41 1.37-1.1 1.37s-1.1-.52-1.1-1.37v-.32c0-.85.4-1.37 1.1-1.37ZM17.33 14.92h.55v-2.4a.98.98 0 0 1 1.02-1.06.94.94 0 0 1 1 1.03v2.42h.55v-2.5a1.33 1.33 0 0 0-1.4-1.46 1.27 1.27 0 0 0-1.15.6h-.02v-.53h-.55v3.9ZM22.97 10.95a1.6 1.6 0 0 0-1.56 1.81v.4c0 1.08.55 1.82 1.56 1.82a1.28 1.28 0 0 0 1.17-.67h.01v.6h.52V9.58h-.55v2h-.01a1.28 1.28 0 0 0-1.14-.62Zm.05.49c.69 0 1.11.54 1.11 1.35v.36c0 .84-.4 1.34-1.1 1.34-.62 0-1.07-.45-1.07-1.34v-.36c0-.9.45-1.35 1.06-1.35ZM28.05 14.4h.02v.51h.53v-2.7a1.25 1.25 0 0 0-1.4-1.26c-.9 0-1.37.48-1.42 1.15h.52c.05-.4.34-.67.88-.67a.78.78 0 0 1 .87.84v.42H27c-.89 0-1.36.43-1.36 1.1a1.16 1.16 0 0 0 1.28 1.19 1.25 1.25 0 0 0 1.14-.57Zm-1.01.1a.74.74 0 0 1-.84-.7c0-.39.24-.66.81-.66h1.04v.48a.93.93 0 0 1-1.02.89ZM32.63 11.02h-.58l-1.12 3.26h-.02l-1.11-3.26h-.6l1.45 3.96-.08.23a.73.73 0 0 1-.77.64 1.94 1.94 0 0 1-.28-.02v.46a2.76 2.76 0 0 0 .37.03c.76 0 1.02-.52 1.22-1.08l.11-.29 1.4-3.93Z" fill="red"/>
</svg>