<svg xmlns="http://www.w3.org/2000/svg" viewBox="0 0 40 48">
  <title>Google Calendar</title>
  <path d="M30.04 14.01H10.01v20.03h20.03Z" fill="#fff"/>
  <path d="m30.04 43.06 9.02-9.02h-9.02Z" fill="#ea4335"/>
  <path d="M39.06 14.01h-9.02v20.03h9.02Z" fill="#fbbc04"/>
  <path d="M30.04 34.04H10.01v9.02h20.03Z" fill="#34a853"/>
  <path d="M1 34.04v6.01a3 3 0 0 0 3 3h6v-9Z" fill="#188038"/>
  <path d="M39.06 14.01V8a3 3 0 0 0-3-3h-6.02v9.01Z" fill="#1967d2"/>
  <path d="M30.04 5H4a3 3 0 0 0-3 3v26.04h9.01V14.01h20.03Z" fill="#4285f4"/>
  <path d="M14.12 29.55a3.87 3.87 0 0 1-1.55-2.22l1.74-.72a2.64 2.64 0 0 0 .83 1.4 2.13 2.13 0 0 0 1.42.5 2.2 2.2 0 0 0 1.46-.52 1.66 1.66 0 0 0 .62-1.32 1.64 1.64 0 0 0-.65-1.34 2.5 2.5 0 0 0-1.62-.51h-1v-1.73h.9a2.2 2.2 0 0 0 1.4-.45 1.49 1.49 0 0 0 .57-1.23 1.36 1.36 0 0 0-.5-1.11 1.98 1.98 0 0 0-1.3-.42 1.74 1.74 0 0 0-1.22.4 2.4 2.4 0 0 0-.65 1l-1.72-.71a3.82 3.82 0 0 1 1.25-1.71 3.63 3.63 0 0 1 2.35-.74 4.28 4.28 0 0 1 1.9.4 3.25 3.25 0 0 1 1.32 1.14 2.89 2.89 0 0 1 .48 1.62 2.66 2.66 0 0 1-.45 1.56 3.05 3.05 0 0 1-1.08.98v.1a3.3 3.3 0 0 1 1.4 1.09 2.85 2.85 0 0 1 .54 1.75 3.28 3.28 0 0 1-.52 1.82 3.59 3.59 0 0 1-1.43 1.26 4.5 4.5 0 0 1-2.05.46 4.24 4.24 0 0 1-2.44-.75Zm10.67-8.62-1.9 1.38-.96-1.45 3.42-2.47h1.32v11.65h-1.88Z" fill="#4285f4"/>
</svg>