<svg xmlns="http://www.w3.org/2000/svg" viewBox="0 0 40 48">
  <title>RSS feed</title>
  <path d="M38.301 37.979a8.059 8.059 0 01-5.121 4.592 16.617 16.617 0 01-4.606.485H11.426a16.622 16.622 0 01-4.607-.485 8.068 8.068 0 01-5.121-4.592 14.968 14.968 0 01-.753-5.404V15.426a14.964 14.964 0 01.753-5.4 8.07 8.07 0 012.438-3.2 7.956 7.956 0 012.682-1.395 16.558 16.558 0 014.608-.486h17.149a16.553 16.553 0 014.606.486 7.965 7.965 0 012.683 1.394 8.064 8.064 0 012.437 3.2 14.936 14.936 0 01.754 5.4v17.15a14.94 14.94 0 01-.754 5.4" fill="#ff7500" fill-rule="evenodd"/>
  <path d="M9.741 11.297a22.682 22.682 0 016.12.82 23.087 23.087 0 0116.115 16.067 22.486 22.486 0 01.823 6.1 2.426 2.426 0 01-4.851 0 17.67 17.67 0 00-.655-4.823 18.354 18.354 0 00-1.84-4.336 18.26 18.26 0 00-6.524-6.5 18.465 18.465 0 00-4.349-1.835 17.82 17.82 0 00-4.839-.66 2.424 2.424 0 01-2.425-2.415 2.424 2.424 0 012.425-2.418zm0 9.145a13.372 13.372 0 015.395 1.1 14.055 14.055 0 017.393 7.364 13.265 13.265 0 011.1 5.379 2.426 2.426 0 01-4.851 0 8.71 8.71 0 00-.711-3.5 9.073 9.073 0 00-4.809-4.8 8.783 8.783 0 00-3.513-.709 2.418 2.418 0 110-4.837zm4.461 12.7a3.321 3.321 0 01-.265 1.334 3.4 3.4 0 01-3.137 2.057 3.351 3.351 0 01-1.338-.264 3.4 3.4 0 01-1.8-1.793 3.458 3.458 0 010-2.655 3.364 3.364 0 01.725-1.084 3.421 3.421 0 011.073-.723 3.4 3.4 0 014.74 3.127z" fill="#fff"/>
</svg>