<svg id="artboard" xmlns="http://www.w3.org/2000/svg" xmlns:xlink="http://www.w3.org/1999/xlink" viewBox="0 0 200 220" shape-rendering="geometricPrecision" text-rendering="geometricPrecision"><style><![CDATA[#artboard-head_to {animation: artboard-head_to__to 2400ms linear infinite normal forwards}@keyframes artboard-head_to__to { 0% {transform: translate(100px,103.9056px);animation-timing-function: cubic-bezier(0.455,0.03,0.515,0.955)} 16.666667% {transform: translate(100px,105.9056px);animation-timing-function: cubic-bezier(0.455,0.03,0.515,0.955)} 33.333333% {transform: translate(100px,103.9056px);animation-timing-function: cubic-bezier(0.455,0.03,0.515,0.955)} 50% {transform: translate(100px,105.9056px);animation-timing-function: cubic-bezier(0.455,0.03,0.515,0.955)} 66.666667% {transform: translate(100px,103.9056px);animation-timing-function: cubic-bezier(0.455,0.03,0.515,0.955)} 83.333333% {transform: translate(100px,105.9056px);animation-timing-function: cubic-bezier(0.455,0.03,0.515,0.955)} 100% {transform: translate(100px,103.9056px)}} #artboard-headphones_to {animation: artboard-headphones_to__to 2400ms linear infinite normal forwards}@keyframes artboard-headphones_to__to { 0% {transform: translate(89.733574px,88.353881px);animation-timing-function: cubic-bezier(0.455,0.03,0.515,0.955)} 16.666667% {transform: translate(87.733574px,87.353881px);animation-timing-function: cubic-bezier(0.455,0.03,0.515,0.955)} 33.333333% {transform: translate(89.733574px,88.353881px);animation-timing-function: cubic-bezier(0.455,0.03,0.515,0.955)} 50% {transform: translate(87.733574px,87.353881px);animation-timing-function: cubic-bezier(0.455,0.03,0.515,0.955)} 66.666667% {transform: translate(89.733574px,88.353881px);animation-timing-function: cubic-bezier(0.455,0.03,0.515,0.955)} 83.333333% {transform: translate(87.733574px,87.353881px);animation-timing-function: cubic-bezier(0.455,0.03,0.515,0.955)} 100% {transform: translate(89.733574px,88.353881px)}} #artboard-headphones_ts {animation: artboard-headphones_ts__ts 2400ms linear infinite normal forwards}@keyframes artboard-headphones_ts__ts { 0% {transform: rotate(-30.000012deg) scale(1,1)} 16.666667% {transform: rotate(-30.000012deg) scale(1.03,1.03)} 33.333333% {transform: rotate(-30.000012deg) scale(1,1)} 50% {transform: rotate(-30.000012deg) scale(1.03,1.03)} 66.666667% {transform: rotate(-30.000012deg) scale(1,1)} 83.333333% {transform: rotate(-30.000012deg) scale(1.03,1.03)} 100% {transform: rotate(-30.000012deg) scale(1,1)}} #artboard-right-ear_ts {animation: artboard-right-ear_ts__ts 2400ms linear infinite normal forwards}@keyframes artboard-right-ear_ts__ts { 0% {transform: translate(142.341619px,107.452675px) scale(1,1);animation-timing-function: cubic-bezier(0.455,0.03,0.515,0.955)} 16.666667% {transform: translate(142.341619px,107.452675px) scale(1.05,1.05);animation-timing-function: cubic-bezier(0.455,0.03,0.515,0.955)} 33.333333% {transform: translate(142.341619px,107.452675px) scale(1,1);animation-timing-function: cubic-bezier(0.455,0.03,0.515,0.955)} 50% {transform: translate(142.341619px,107.452675px) scale(1.05,1.05);animation-timing-function: cubic-bezier(0.455,0.03,0.515,0.955)} 66.666667% {transform: translate(142.341619px,107.452675px) scale(1,1);animation-timing-function: cubic-bezier(0.455,0.03,0.515,0.955)} 83.333333% {transform: translate(142.341619px,107.452675px) scale(1.05,1.05);animation-timing-function: cubic-bezier(0.455,0.03,0.515,0.955)} 100% {transform: translate(142.341619px,107.452675px) scale(1,1)}} #artboard-left-ear_ts {animation: artboard-left-ear_ts__ts 2400ms linear infinite normal forwards}@keyframes artboard-left-ear_ts__ts { 0% {transform: translate(19.106586px,108.415387px) scale(1,1);animation-timing-function: cubic-bezier(0.455,0.03,0.515,0.955)} 16.666667% {transform: translate(19.106586px,108.415387px) scale(1.05,1.05);animation-timing-function: cubic-bezier(0.455,0.03,0.515,0.955)} 33.333333% {transform: translate(19.106586px,108.415387px) scale(1,1);animation-timing-function: cubic-bezier(0.455,0.03,0.515,0.955)} 50% {transform: translate(19.106586px,108.415387px) scale(1.05,1.05);animation-timing-function: cubic-bezier(0.455,0.03,0.515,0.955)} 66.666667% {transform: translate(19.106586px,108.415387px) scale(1,1);animation-timing-function: cubic-bezier(0.455,0.03,0.515,0.955)} 83.333333% {transform: translate(19.106586px,108.415387px) scale(1.05,1.05);animation-timing-function: cubic-bezier(0.455,0.03,0.515,0.955)} 100% {transform: translate(19.106586px,108.415387px) scale(1,1)}}]]></style><g id="artboard-artboard"><g id="artboard-head_to" transform="translate(100,103.9056)"><g id="artboard-head" transform="translate(-71.952095,-80.585696)"><ellipse id="artboard-oval-5-copy-10" rx="46.6327" ry="46.5857" transform="matrix(-1 0 0 1 69.6326 80.5857)" fill="none" fill-rule="evenodd" stroke="rgb(207,255,0)" stroke-width="6"/><polyline id="artboard-path-138" points="4.597092,54.537896 53.327435,25.626877 89.50149,25.626877" transform="matrix(1 0 0 1 20 31)" fill="none" stroke="rgb(207,255,0)" stroke-width="6"/><path id="artboard-mouth" d="M101.209734,92.044997C98.037643,98.422616,92.916641,101.577142,85.167245,103.88415" transform="matrix(0.927162 0.120941 -0.109253 0.837559 7.671295 14.697564)" fill="none" fill-rule="evenodd" stroke="rgb(207,255,0)" stroke-width="6" stroke-linecap="round" stroke-dasharray="1"/></g></g><g id="artboard-body" transform="matrix(1 0 0 1 32.9978 96.0237)"><path id="artboard-rectangle-2-copy-8" d="M33.75965,34.52224L62.24035,34.52224C80.88529,34.52224,96,49.63695,96,68.28189L96,90.170397L96,90.170397L0,89.437325L0,68.28189C0,49.63695,15.11471,34.52224,33.75965,34.52224Z" transform="matrix(1 0 0 1 20 31)" fill="none" fill-rule="evenodd" stroke="rgb(207,255,0)" stroke-width="6"/><path id="artboard-path-7-copy-34" d="M12.488668,43.730819C14.162502,71.627742,23.636374,85.576204,40.910285,85.576204C76.77854,82.575633,58.537596,35.898945,38.020684,9.839939C31.054017,8.263976,24.554136,4.983997,18.521041,0" transform="matrix(1 0 0 1 20 31)" fill="none" fill-rule="evenodd" stroke="rgb(207,255,0)" stroke-width="6" stroke-linecap="round"/></g><g id="artboard-headphones_to" transform="translate(89.733574,88.353881)"><g id="artboard-headphones_ts" transform="rotate(-30.000012) scale(1,1)"><g id="artboard-headphones" transform="translate(-83.833006,-90.264109)"><g id="artboard-right-ear_ts" transform="translate(142.341619,107.452675) scale(1,1)"><g id="artboard-right-ear" transform="translate(-38.535619,-74.836175)"><path id="artboard-rectangle-7-copy" d="M18.822975,11.029852C22.783396,8.743302,27.847567,10.100243,30.134117,14.060664L50.656825,49.607037C52.943375,53.567458,51.586435,58.631629,47.626014,60.918179C43.665593,63.20473,38.601422,61.847789,36.314872,57.887368L15.792163,22.340994C13.505613,18.380573,14.862554,13.316403,18.822975,11.029852Z" transform="matrix(0.866025 0.5 -0.5 0.866025 24.258702 25.054185)" fill="none" fill-rule="evenodd" stroke="rgb(207,255,0)" stroke-width="6"/><path id="artboard-oval-2" d="M53.985616,56.338164L53.985616,56.338164C61.461348,52.022048,62.651516,40.087865,56.64393,29.682421C50.636344,19.276977,39.705955,14.340601,32.230223,18.656717" transform="matrix(0.866025 0.5 -0.5 0.866025 26.388702 18.589885)" fill="none" fill-rule="evenodd" stroke="rgb(207,255,0)" stroke-width="6"/></g></g><g id="artboard-left-ear_ts" transform="translate(19.106586,108.415387) scale(1,1)"><g id="artboard-left-ear" transform="translate(-19.106586,-66.605987)"><path id="artboard-rectangle-7-copy-4" d="M26.118457,0C30.691558,0,34.398788,3.70723,34.398788,8.280331L34.398788,49.325747C34.398788,53.898848,30.691558,57.606078,26.118457,57.606078C21.545357,57.606078,17.838127,53.898848,17.838127,49.325747L17.838127,8.280331C17.838127,3.70723,21.545357,0,26.118457,0Z" transform="matrix(-1 0 0 -1 54.057402 94.452885)" fill="none" fill-rule="evenodd" stroke="rgb(207,255,0)" stroke-width="6"/><path id="artboard-oval-2-copy" d="M0,50.558432L0,50.558432C8.632232,50.558432,15.630038,40.818211,15.630038,28.803039C15.630038,16.787867,8.632232,7.047646,0,7.047646" transform="matrix(-1 0 0 -1 17.450502 94.452885)" fill="none" fill-rule="evenodd" stroke="rgb(207,255,0)" stroke-width="6"/></g></g><path id="artboard-oval" d="M135.041534,40.59761C128.718643,15.475812,106.170212,-0.397797,78.691202,0.007585C51.212192,0.412967,30.780579,16.408446,26.042245,42.205612" transform="matrix(1 0 0 1 1.820502 36.846785)" fill="none" fill-rule="evenodd" stroke="rgb(207,255,0)" stroke-width="6"/></g></g></g></g></svg>