<svg xmlns="http://www.w3.org/2000/svg" viewBox="0 0 41 48">
  <title>15 seconds backwards</title>
  <g fill="currentColor">
    <path d="M19.36 43.82a19.7 19.7 0 01-7.71-1.56 19.75 19.75 0 01-5.81-3.77l3.2-3.78a14.77 14.77 0 0010.32 4.16 14.76 14.76 0 0010.5-4.35 14.75 14.75 0 004.34-10.5 14.75 14.75 0 00-4.34-10.5 14.75 14.75 0 00-10.5-4.35 14.75 14.75 0 00-10.5 4.35 15.16 15.16 0 00-1.24 1.4l-3.78-3.2a20.07 20.07 0 011.52-1.7 19.73 19.73 0 016.29-4.25 19.68 19.68 0 017.7-1.55 19.68 19.68 0 017.71 1.55 19.73 19.73 0 016.3 4.25 19.72 19.72 0 014.24 6.3 19.68 19.68 0 011.55 7.7 19.68 19.68 0 01-1.55 7.7 19.7 19.7 0 01-4.24 6.3 19.75 19.75 0 01-6.3 4.24 19.7 19.7 0 01-7.7 1.56z"/>
    <path d="M6.78 5.74l.8 6.75 6.32.51-.36 5-10.5-.87L1.8 6.36zM13.07 18.75L9.98 21.7l1.85 1.89.87-.77v4.34h-2.33v2.65h7.55v-2.65h-2.27v-8.41zM20.08 18.75h6.4v2.73h-3.7l-.07.87a3.8 3.8 0 014.57 3.76 3.6 3.6 0 01-3 3.79 6.1 6.1 0 01-5.1-1.52l1.52-2.4c1.47 1.46 3.46 1.4 3.46 0s-2.38-1.23-2.87-.67l-1.66-.62z"/>
  </g>
</svg>
