<svg xmlns="http://www.w3.org/2000/svg" viewBox="0 0 41 48">
  <title>15 seconds forwards</title>
  <g fill="currentColor">
    <path d="M21.6 43.8a19.7 19.7 0 007.7-1.56 19.75 19.75 0 005.81-3.77l-3.2-3.78a14.77 14.77 0 01-10.31 4.16 14.76 14.76 0 01-10.5-4.35A14.75 14.75 0 016.75 24a14.75 14.75 0 014.35-10.5 14.75 14.75 0 0110.5-4.35 14.75 14.75 0 0110.5 4.35 15.13 15.13 0 011.24 1.4l3.77-3.2A20.08 20.08 0 0035.6 10a19.74 19.74 0 00-6.3-4.25 19.68 19.68 0 00-7.7-1.55 19.68 19.68 0 00-7.7 1.55A19.74 19.74 0 007.6 10a19.73 19.73 0 00-4.24 6.3A19.68 19.68 0 001.8 24a19.68 19.68 0 001.56 7.7A19.71 19.71 0 007.6 38a19.75 19.75 0 006.3 4.24 19.7 19.7 0 007.7 1.56z"/>
    <path d="M34.18 5.72l-.8 6.75-6.33.51.36 5 10.5-.87 1.24-10.77zM15.58 18.75l-3.1 2.95 1.86 1.89.87-.77v4.34h-2.33v2.65h7.54v-2.65h-2.26v-8.41zM22.59 18.75h6.4v2.72h-3.7l-.07.88a3.8 3.8 0 014.56 3.76 3.6 3.6 0 01-2.99 3.79 6.1 6.1 0 01-5.1-1.52l1.52-2.4c1.47 1.46 3.46 1.4 3.46 0s-2.38-1.23-2.87-.67l-1.67-.62z"/>
  </g>
</svg>