<svg fill="none" viewBox="0 0 28 37" xmlns="http://www.w3.org/2000/svg" xmlns:xlink="http://www.w3.org/1999/xlink"><linearGradient id="a"><stop offset="0" stop-color="#fff"/><stop offset="1" stop-color="#fff" stop-opacity="0"/></linearGradient><linearGradient id="b" gradientUnits="userSpaceOnUse" x1="2.671" x2="9.643" xlink:href="#a" y1="14.452" y2="37.805"/><linearGradient id="c" gradientUnits="userSpaceOnUse" x1="11.473" x2="16.219" xlink:href="#a" y1=".859" y2="8.983"/><g stroke="#fff" stroke-linecap="round" stroke-width="2"><path d="m1.438 33.192v-15.962a2 2 0 0 1 2-2h20.738a2 2 0 0 1 2 2v15.962a2 2 0 0 1 -2 2h-20.738a2 2 0 0 1 -2-2z" fill="url(#b)"/><path d="m13.908 15.23v-5.199m-12.47 12.206 1.793-.732a2 2 0 0 1 1.51 0l1.038.424a2 2 0 0 0 1.51 0l1.038-.424a2 2 0 0 1 1.51 0l1.038.424a2 2 0 0 0 1.51 0l1.038-.424a2 2 0 0 1 1.51 0l1.038.424a2 2 0 0 0 1.51 0l.959-.391a2 2 0 0 1 1.642.06l1.292.639m-19.936 6.955 1.793-.732a2 2 0 0 1 1.51 0l1.038.424a2 2 0 0 0 1.51 0l1.038-.424a2 2 0 0 1 1.51 0l1.038.424a2 2 0 0 0 1.51 0l1.038-.424a2 2 0 0 1 1.51 0l1.038.424a2 2 0 0 0 1.51 0l.959-.391a2 2 0 0 1 1.642.06l1.292.639"/><path d="m11.093 7.623c.25 1.514 2.039 2.462 3.306 2.123 4.276-1.144.998-8.29.162-8.639-.133-.055-.162.162-.21.297-.437 1.227-3.619 4.033-3.258 6.22z" fill="url(#c)"/></g></svg>
