<svg xmlns="http://www.w3.org/2000/svg" viewBox="0 0 46 48">
  <title>Heart</title>
  <path d="M23.05 43.47A59.09 59.09 0 018.82 31.93C4.47 27 1.92 22.1 1.47 17.77A11.96 11.96 0 015.68 7.2a11.34 11.34 0 017.25-2.6 14.7 14.7 0 016.9 1.85 13.29 13.29 0 013.21 2.63 12.44 12.44 0 013.25-2.53 15.68 15.68 0 016.95-1.77 10.65 10.65 0 016.9 2.42c3.27 2.94 4.77 6.43 4.44 10.38-.8 9.55-12.1 19.92-21.53 25.9zM13.1 9.81a5.45 5.45 0 00-3.49 1.29 7.77 7.77 0 00-2.73 6.87c.42 4.01 3.41 8 5.85 10.63a46.36 46.36 0 0010.3 8.27 53.3 53.3 0 0010.2-8.48c3.62-3.93 5.66-7.67 5.9-10.82a7.5 7.5 0 00-2.76-6.47A5.55 5.55 0 0033 9.93c-2.62 0-5.12 1.78-6.75 3.27a37.9 37.9 0 00-3.2 3.3 45.84 45.84 0 00-3.23-3.36c-1.63-1.52-4.11-3.34-6.7-3.33z" fill="currentColor"/>
</svg>
