<svg viewBox="0 0 15 18" fill="none" xmlns="http://www.w3.org/2000/svg"><path fill-rule="evenodd" clip-rule="evenodd" d="M7.249 16.762c-2.417-2.268-5.838-6.103-5.838-9.687 0-3.987 3.377-6.05 6.556-6.05 3.179 0 6.178 2.674 6.178 6.05 0 3.98-3.186 7.257-5.386 9.52l-.118.122a.994.994 0 0 1-1.392.045zm.529-7.525a2.023 2.023 0 0 0 2.021-2.024 2.023 2.023 0 1 0-2.021 2.024z" fill="url(#paint0_linear_1443_14818)"/><path d="M7.249 16.762l-.342.365.342-.365zm1.51-.166l-.359-.349.359.349zm-.118.121l.358.349-.358-.349zM.91 7.075c0 1.941.921 3.898 2.1 5.62 1.186 1.731 2.674 3.285 3.896 4.432l.684-.73c-1.195-1.12-2.626-2.619-3.755-4.267-1.135-1.659-1.925-3.412-1.925-5.055h-1zM7.967.525c-1.69 0-3.445.547-4.786 1.643C1.828 3.272.91 4.925.91 7.075h1c0-1.837.772-3.21 1.902-4.133C4.955 2.01 6.48 1.525 7.967 1.525v-1zm6.678 6.55c0-3.676-3.247-6.55-6.678-6.55v1c2.927 0 5.678 2.474 5.678 5.55h1zm-5.528 9.87c1.097-1.128 2.475-2.544 3.575-4.188 1.102-1.644 1.953-3.556 1.953-5.682h-1c0 1.854-.742 3.571-1.783 5.126-1.043 1.556-2.357 2.91-3.462 4.046l.717.697zm-.118.12l.118-.12-.717-.698-.118.122.717.697zm-2.092.062a1.494 1.494 0 0 0 2.092-.061l-.717-.697a.494.494 0 0 1-.69.029l-.685.729zm2.392-9.914c0 .842-.681 1.524-1.521 1.524v1a2.523 2.523 0 0 0 2.521-2.524h-1zM7.778 5.69c.84 0 1.521.682 1.521 1.524h1A2.523 2.523 0 0 0 7.778 4.69v1zM6.257 7.213c0-.842.681-1.524 1.52-1.524v-1a2.523 2.523 0 0 0-2.52 2.524h1zm1.52 1.524c-.839 0-1.52-.682-1.52-1.524h-1a2.523 2.523 0 0 0 2.52 2.524v-1z" fill="#fff"/><defs><linearGradient id="paint0_linear_1443_14818" x1="2.046" y1=".39" x2="10.079" y2="17.352" gradientUnits="userSpaceOnUse"><stop stop-color="#fff"/><stop offset="1" stop-color="#fff" stop-opacity="0"/></linearGradient></defs></svg>
