<svg xmlns="http://www.w3.org/2000/svg" viewBox="0 0 44 48">
  <title>Pause circle</title>
  <path d="M21.91 44.33a20.19 20.19 0 01-7.9-1.6 20.25 20.25 0 01-6.46-4.35 20.25 20.25 0 01-4.36-6.46 20.19 20.19 0 01-1.6-7.9 20.19 20.19 0 011.6-7.92 20.25 20.25 0 014.36-6.45A20.25 20.25 0 0114 5.29a20.19 20.19 0 017.91-1.6 20.19 20.19 0 017.91 1.6 20.25 20.25 0 016.46 4.36 20.25 20.25 0 014.35 6.45 20.19 20.19 0 011.6 7.91 20.19 20.19 0 01-1.6 7.91 20.25 20.25 0 01-4.35 6.46 20.25 20.25 0 01-6.46 4.35 20.19 20.19 0 01-7.9 1.6zm1.22-28.44v16.25h4.88V15.9zm-7.31 0v16.25h4.87V15.9h-4.87z" fill="currentColor"/>
</svg>
