<svg xmlns="http://www.w3.org/2000/svg" viewBox="0 0 44 48">
  <title>Play circle</title>
  <path d="M21.97 44.23a20.19 20.19 0 0 1-7.91-1.6 20.25 20.25 0 0 1-6.46-4.35 20.25 20.25 0 0 1-4.35-6.46 20.2 20.2 0 0 1-1.6-7.9A20.19 20.19 0 0 1 3.25 16 20.27 20.27 0 0 1 7.6 9.55a20.26 20.26 0 0 1 6.46-4.36 20.19 20.19 0 0 1 7.9-1.6 20.19 20.19 0 0 1 7.91 1.6 20.26 20.26 0 0 1 6.46 4.36A20.27 20.27 0 0 1 40.7 16a20.19 20.19 0 0 1 1.6 7.9 20.2 20.2 0 0 1-1.6 7.91 20.25 20.25 0 0 1-4.36 6.46 20.25 20.25 0 0 1-6.46 4.35 20.2 20.2 0 0 1-7.9 1.6Zm-5.7-28.44v16.25l13.75-8.13Z" fill="currentColor"/>
</svg>