<svg viewBox="0 0 19 18" fill="none" xmlns="http://www.w3.org/2000/svg"><path d="M8.65 1.88a1 1 0 0 1 1.794 0l1.8 3.647a1 1 0 0 0 .753.547l4.026.585a1 1 0 0 1 .554 1.706l-2.913 2.84a1 1 0 0 0-.288.885l.688 4.01a1 1 0 0 1-1.451 1.053l-3.6-1.893a1 1 0 0 0-.931 0L5.48 17.153A1 1 0 0 1 4.03 16.1l.688-4.01a1 1 0 0 0-.288-.885L1.517 8.365a1 1 0 0 1 .554-1.706l4.026-.585a1 1 0 0 0 .753-.547l1.8-3.648z" fill="url(#paint0_linear_1443_14940)" stroke="#fff"/><defs><linearGradient id="paint0_linear_1443_14940" x1="21.001" y1="20" x2="-2.985" y2="-5.587" gradientUnits="userSpaceOnUse"><stop stop-color="#fff" stop-opacity="0"/><stop offset="1" stop-color="#fff" stop-opacity=".6"/></linearGradient></defs></svg>
