<svg viewBox="0 0 38 33" fill="none" xmlns="http://www.w3.org/2000/svg">
<path d="M14.9766 2.64648C16.8778 -0.485697 21.2528 -0.918228 23.7305 1.78125L24.002 2.07617C25.2469 3.43279 25.7304 5.32351 25.29 7.11133L24.5303 10.1943C24.4526 10.5094 24.6911 10.8144 25.0156 10.8145H31.6357C35.8558 10.8148 38.5037 15.3718 36.4141 19.0381L35.8789 19.9766C35.8361 20.0518 35.8136 20.1371 35.8135 20.2236V21.4023C35.8134 22.8606 35.2341 24.2597 34.2031 25.291L34.0938 25.4004C34.0002 25.4941 33.9473 25.6215 33.9473 25.7539V26.625C33.9473 29.6624 31.4846 32.1247 28.4473 32.125H13.9248C10.8872 32.125 8.4248 29.6626 8.4248 26.625V14.9824C8.4249 13.9766 8.70093 12.9898 9.22266 12.1299L14.9766 2.64648ZM5.00098 13.7646L5 31.2959H0L0.000976562 13.7646H5.00098ZM20.0469 5.16211C19.8218 4.91689 19.424 4.95604 19.251 5.24023L13.4971 14.7236C13.4499 14.8016 13.4249 14.8913 13.4248 14.9824V26.625C13.4248 26.9011 13.6487 27.125 13.9248 27.125H28.4473C28.7232 27.1247 28.9473 26.901 28.9473 26.625V25.7539C28.9473 24.2953 29.5272 22.8956 30.5586 21.8643L30.667 21.7559C30.7605 21.6622 30.8134 21.5347 30.8135 21.4023V20.2236C30.8136 19.2686 31.0622 18.3297 31.5352 17.5L32.0703 16.5615C32.2595 16.2285 32.0189 15.8148 31.6357 15.8145H25.0156C21.4454 15.8144 18.8219 12.4656 19.6758 8.99902L20.4355 5.91504C20.4754 5.75266 20.4314 5.58026 20.3184 5.45703L20.0469 5.16211Z" fill="white"/>
</svg>
