<svg viewBox="0 0 38 33" fill="none" xmlns="http://www.w3.org/2000/svg">
<path d="M28.4463 0C31.4839 0 33.9463 2.46243 33.9463 5.5V6.37109C33.9463 6.50349 33.9992 6.63091 34.0928 6.72461L34.2021 6.83398C35.2333 7.86534 35.8124 9.26424 35.8125 10.7227V11.9014C35.8126 11.9879 35.8351 12.0732 35.8779 12.1484L36.4131 13.0869C38.5031 16.7534 35.8552 21.3105 31.6348 21.3105H25.0146C24.6901 21.3106 24.4517 21.6156 24.5293 21.9307L25.2891 25.0137C25.7295 26.8016 25.246 28.6922 24.001 30.0488L23.7295 30.3438C21.2518 33.0432 16.8767 32.6109 14.9756 29.4785L9.22168 19.9951C8.69993 19.1351 8.42391 18.1484 8.42383 17.1426V5.5C8.42383 2.46244 10.8863 7.60666e-08 13.9238 0H28.4463ZM13.9238 5C13.6477 5 13.4238 5.22386 13.4238 5.5V17.1426C13.4239 17.2338 13.4489 17.3234 13.4961 17.4014L19.25 26.8848C19.4229 27.1692 19.8207 27.2081 20.0459 26.9629L20.3174 26.668C20.4305 26.5447 20.4745 26.3724 20.4346 26.21L19.6748 23.126C18.821 19.6594 21.4444 16.3106 25.0146 16.3105H31.6348C32.0183 16.3105 32.2589 15.8967 32.0693 15.5635L31.5342 14.625C31.0612 13.7953 30.8126 12.8564 30.8125 11.9014V10.7227C30.8124 10.5902 30.7597 10.4628 30.666 10.3691L30.5576 10.2607C29.5262 9.22934 28.9463 7.82972 28.9463 6.37109V5.5C28.9463 5.22386 28.7224 5 28.4463 5H13.9238ZM5 18.3604H0V0.829102H5V18.3604Z" fill="white"/>
</svg>
