<svg xmlns="http://www.w3.org/2000/svg" viewBox="0 0 280 33">
  <title>programmier.bar logo</title>
  <g fill="none" fill-rule="evenodd">
    <path d="M43.96 6.7a9.4 9.4 0 0 0-9.64 9.61c0 5.5 4.04 9.5 9.64 9.5 5.62 0 9.67-4 9.67-9.5s-4.18-9.6-9.67-9.6m0 14.86c-2.82 0-4.9-2.16-4.9-5.26 0-3.13 2.05-5.36 4.9-5.36 2.84 0 4.94 2.26 4.94 5.36 0 3.1-2.1 5.26-4.94 5.26M100.63 6.73c1.77 0 3.86.8 5.26 2V7.12h4.42v18.33h-4.42v-1.42c-1.42 1.48-3.36 1.81-5.26 1.81-5.6 0-9.64-4-9.64-9.5a9.4 9.4 0 0 1 9.64-9.6Zm-.16 4.25c-2.85 0-4.91 2.22-4.91 5.35 0 3.1 2.1 5.26 4.9 5.26 2.85 0 4.95-2.16 4.95-5.26 0-3.1-2.1-5.35-4.94-5.35Z" fill="#FFF"/>
    <path d="M254.44 6.73c1.77 0 3.87.8 5.26 2V7.12h4.43v18.33h-4.43v-1.42c-1.41 1.48-3.35 1.81-5.26 1.81-5.59 0-9.64-4-9.64-9.5a9.4 9.4 0 0 1 9.64-9.6Zm-.16 4.25c-2.85 0-4.9 2.22-4.9 5.35 0 3.1 2.09 5.26 4.9 5.26 2.85 0 4.94-2.16 4.94-5.26 0-3.1-2.1-5.35-4.94-5.35Z" fill="#CFFF00"/>
    <path d="M65.27 6.78a8.4 8.4 0 0 1 5.15 1.97V7.1h4.35v17.58c0 .77 0 2.4-.44 3.66a6.31 6.31 0 0 1-2.4 2.98c-4.15 2.77-9.2 1.42-11.73.18.43-1.14.97-2.52 1.4-3.7 2.43 1.32 5.82 1.42 7.18.54 1.36-.88 1.5-2.5 1.5-4.37v-.1c-1.38 1.32-3.21 1.63-5.01 1.63-5.49 0-9.46-3.93-9.46-9.32 0-5.42 4.1-9.41 9.46-9.41Zm-.16 4.16c-2.8 0-4.81 2.18-4.81 5.25 0 3.04 2.05 5.16 4.8 5.16 2.8 0 4.85-2.12 4.85-5.16 0-3.03-2.05-5.25-4.84-5.25ZM178.02 7.13v18.3h-4.4V7.13h4.4Zm-2.2-7.11a2.68 2.68 0 0 1 2.67 2.7c0 1.5-1.2 2.7-2.66 2.7a2.68 2.68 0 0 1-2.67-2.7c0-1.5 1.2-2.7 2.67-2.7ZM9.68 6.74c5.5 0 9.7 4.1 9.7 9.6s-4.06 9.5-9.7 9.5c-1.98 0-3.76-.49-5.24-1.37V33H0V16.85h.01a9.42 9.42 0 0 1 9.67-10.1Zm0 4.24c-2.86 0-4.93 2.23-4.93 5.36 0 3.1 2.1 5.26 4.93 5.26 2.85 0 4.96-2.16 4.96-5.26 0-3.1-2.1-5.36-4.96-5.36ZM190.41 6.78c5.16 0 7.93 3.8 7.93 8.6 0 .47-.08 1.45-.1 1.69v.05c-.03.35-.07.6-.11.73h-11.76c.56 2.69 2.43 4.07 4.89 4.07 2.87 0 5.25-1.72 5.25-1.72l.03.05 1.42 3.06c-.65.55-3.2 2.45-7.02 2.45-5.93 0-9.61-4.33-9.61-9.49 0-5.58 3.75-9.5 9.08-9.5Zm-.1 3.48c-2.16 0-3.6 1.53-3.85 3.77h7.35c-.08-2.27-1.64-3.77-3.5-3.77Z" fill="#FFF"/>
    <path d="M227.85 0v8.93c1.38-.8 3-1.25 4.77-1.25 5.2 0 9.18 3.9 9.18 9.11 0 5.22-3.84 9.02-9.18 9.02-5.3 0-9.15-3.8-9.15-9.02v-.09h-.01V0h4.4Zm4.77 11.7c-2.7 0-4.66 2.12-4.66 5.1 0 2.93 1.99 4.98 4.66 4.98 2.7 0 4.69-2.05 4.69-4.99 0-2.94-1.99-5.08-4.7-5.08Z" fill="#CFFF00"/>
    <path d="M26.3 14.35v11.03h-4.4V15.1c0-5.14 2.87-8.32 6.93-8.32 2.78 0 4.04 1.27 5.07 2.11a760.72 760.72 0 0 0-2.18 3c-.68-.64-1.38-.78-1.43-.8-.32-.11-.8-.1-.8-.1-1.6 0-3.19 1.35-3.19 3.36ZM82.88 14.35v11.03h-4.4V15.1c0-5.14 2.86-8.32 6.92-8.32 2.79 0 4.05 1.27 5.07 2.11a760.71 760.71 0 0 0-2.18 3c-.68-.64-1.37-.78-1.43-.8-.31-.11-.79-.1-.79-.1-1.6 0-3.2 1.35-3.2 3.36ZM205.9 14.35v11.03h-4.4V15.1c0-5.14 2.87-8.32 6.93-8.32 2.78 0 4.05 1.27 5.07 2.11a760.76 760.76 0 0 0-2.18 3c-.68-.64-1.38-.78-1.43-.8-.31-.11-.79-.1-.79-.1-1.6 0-3.2 1.35-3.2 3.36Z" fill="#FFF"/>
    <path d="M272.4 14.35v11.03H268V15.1c0-5.14 2.87-8.32 6.93-8.32 2.79 0 4.05 1.27 5.07 2.11a760.6 760.6 0 0 0-2.18 3c-.68-.64-1.38-.78-1.43-.8-.31-.11-.79-.1-.79-.1-1.6 0-3.2 1.35-3.2 3.36Z" fill="#CFFF00"/>
    <path d="M126.84 8.92a7.09 7.09 0 0 0-5.2-2.2c-4.86 0-7.87 3.64-7.87 8.49v10.22h4.47V14.26c0-1.9 1.3-3.32 3.2-3.32 1.57 0 3 1.22 3 3.19v11.3h4.47V14.26a3.2 3.2 0 0 1 3.28-3.32 3.09 3.09 0 0 1 3.08 3.19v11.3h4.64V14.86c0-5.02-3.46-8.13-7.47-8.13-2.3 0-4.25.82-5.6 2.19ZM156.65 8.92a7.09 7.09 0 0 0-5.2-2.2c-4.87 0-7.88 3.64-7.88 8.49v10.22h4.47V14.26c0-1.9 1.3-3.32 3.2-3.32 1.57 0 3 1.22 3 3.19v11.3h4.47V14.26a3.2 3.2 0 0 1 3.28-3.32 3.09 3.09 0 0 1 3.08 3.19v11.3h4.64V14.86c0-5.02-3.46-8.13-7.47-8.13-2.3 0-4.25.82-5.6 2.19Z" fill="#FFF"/>
    <ellipse fill="#CFFF00" fill-rule="nonzero" cx="217.68" cy="23.54" rx="2.2" ry="2.23"/>
  </g>
</svg>