<svg xmlns="http://www.w3.org/2000/svg" viewBox="0 0 66 49">
  <title>programmier.bar icon</title>
  <path d="M1.34 35a1.34 1.34 0 0 1-1-.46 1.37 1.37 0 0 1-.34-.9V15.28a15.26 15.26 0 0 1 4.42-10.8A14.92 14.92 0 0 1 15.1 0h12.55a14.92 14.92 0 0 1 10.68 4.47 15.26 15.26 0 0 1 4.42 10.8 15.56 15.56 0 0 1-.15 2.22H41.1a13.66 13.66 0 0 0-1.37.07 12.63 12.63 0 0 0 .2-2.29 12.43 12.43 0 0 0-3.6-8.79 12.14 12.14 0 0 0-8.69-3.64H15.1a12.14 12.14 0 0 0-8.7 3.64 12.43 12.43 0 0 0-3.6 8.8v15.24c2.54-1.92 4.55-2.81 6.34-2.81h18.83a14.01 14.01 0 0 0-.44 2.84H9.17c-1.52 0-3.86 1.38-6.95 4.12a1.33 1.33 0 0 1-.88.34zm16.97-12.74-1.86-1 6.92-13.03 1.85 1.01-6.9 13.02zm8.5-1.77-1.08-1.83 5.92-3.55-5.88-3.26 1-1.87 7.13 3.95v2.3l-7.09 4.26zM15 20.16l-7.1-4.27v-2.3l7.13-3.94 1.01 1.86-5.88 3.26 5.92 3.56L15 20.16z" fill="#fff"/>
  <path d="M64 48.7q-4.21-3.74-6.28-3.71h-16.6a13.67 13.67 0 0 1-13.6-13.75 13.67 13.67 0 0 1 13.6-13.75H52.4A13.67 13.67 0 0 1 66 31.24v16.54a1.23 1.23 0 0 1-.3.8 1.2 1.2 0 0 1-.9.42 1.2 1.2 0 0 1-.8-.3zm-.8-4.3V31.24A10.85 10.85 0 0 0 52.4 20.33h-11.3a10.85 10.85 0 0 0-10.78 10.9 10.85 10.85 0 0 0 10.79 10.92h16.66c1.6 0 3.35.76 5.41 2.25zm-17.13-6.7c-5.71-3.74-8.27-8.12-5.77-11.13 1.68-2.08 4.41-1.66 6.46-.09a6.8 6.8 0 0 1 2.32-1.25 3.77 3.77 0 0 1 4.15 1.33c2.49 3-.1 7.43-5.74 11.16a1.29 1.29 0 0 1-.7.2 1.25 1.25 0 0 1-.73-.21zm-4.15-9.78c-1.32 1.6.4 4.67 4.86 7.71 4.4-3.03 6.14-6.14 4.84-7.7-1.02-1.24-2.56-.8-4.12.73l-.74.72-.74-.73a4.18 4.18 0 0 0-2.75-1.32 1.66 1.66 0 0 0-1.35.6z" fill="#cfff00"/>
</svg>