<svg fill="none" height="257" width="257" xmlns="http://www.w3.org/2000/svg"><clipPath id="a"><path d="M0 0h256v256H0z" transform="translate(.5 .191)"/></clipPath><g clip-path="url(#a)" stroke="#cfff00" stroke-width="7"><path clip-rule="evenodd" d="M52.24 192.301a4.275 4.275 0 0 0 3.023 5.236l30.678 8.22a4.274 4.274 0 0 0 5.236-3.023l16.785-62.641c1.52-5.672.613-14.197-4.018-20.096l4.672-25.13c8.276-1.942 8.017-12.158.693-14.213l-11.59-3.106c-6.444-1.481-12.574 6.353-6.406 12.683l-8.62 24.072c-7.926 2.535-12.149 9.685-13.668 15.357z"/><path d="M67.817 131.633l39.571 10.603m-51.96 37.119l38.637 10.353"/><path clip-rule="evenodd" d="M167.549 189.076a4.276 4.276 0 0 0 5.586 2.316l29.346-12.147a4.275 4.275 0 0 0 2.315-5.585l-24.801-59.921c-2.246-5.426-8.154-11.639-15.419-13.502l-11.584-22.784c5.384-6.577-1.038-14.527-8.1-11.7l-11.088 4.589c-6.014 2.746-6.11 12.692 2.636 13.962l7.809 24.347c-4.747 6.835-3.747 15.079-1.501 20.504z"/><path d="M142.991 131.455l37.852-15.667m-18.642 61.075l36.959-15.297"/><path d="M108.524 67.575l-9.874-6.716m18.083-.498l-3.547-13.237M126.793 59l2.551-10.28" stroke-linecap="round"/></g></svg>