<svg fill="none" viewBox="0 0 682 874" xmlns="http://www.w3.org/2000/svg" xmlns:xlink="http://www.w3.org/1999/xlink"><filter id="a" color-interpolation-filters="sRGB" filterUnits="userSpaceOnUse" height="340.394" width="466.387" x="138.307" y="463.044"><feFlood flood-opacity="0" result="BackgroundImageFix"/><feBlend in="SourceGraphic" in2="BackgroundImageFix" mode="normal" result="shape"/><feColorMatrix in="SourceAlpha" result="hardAlpha" type="matrix" values="0 0 0 0 0 0 0 0 0 0 0 0 0 0 0 0 0 0 127 0"/><feOffset dx="-5.87067" dy="-7.82756"/><feGaussianBlur stdDeviation="4.89223"/><feComposite in2="hardAlpha" k2="-1" k3="1" operator="arithmetic"/><feColorMatrix type="matrix" values="0 0 0 0 0.314602 0 0 0 0 0.388265 0 0 0 0 0 0 0 0 0.7 0"/><feBlend in2="shape" mode="normal" result="effect1_innerShadow_2244_10011"/><feColorMatrix in="SourceAlpha" result="hardAlpha" type="matrix" values="0 0 0 0 0 0 0 0 0 0 0 0 0 0 0 0 0 0 127 0"/><feOffset dx="5.87067" dy="9.78445"/><feGaussianBlur stdDeviation="4.89223"/><feComposite in2="hardAlpha" k2="-1" k3="1" operator="arithmetic"/><feColorMatrix type="matrix" values="0 0 0 0 1 0 0 0 0 1 0 0 0 0 1 0 0 0 0.25 0"/><feBlend in2="effect1_innerShadow_2244_10011" mode="normal" result="effect2_innerShadow_2244_10011"/></filter><filter id="b" color-interpolation-filters="sRGB" filterUnits="userSpaceOnUse" height="51.3984" width="47.1803" x="472.835" y="211.446"><feFlood flood-opacity="0" result="BackgroundImageFix"/><feBlend in="SourceGraphic" in2="BackgroundImageFix" mode="normal" result="shape"/><feGaussianBlur result="effect1_foregroundBlur_2244_10011" stdDeviation="4.89053"/></filter><filter id="c" color-interpolation-filters="sRGB" filterUnits="userSpaceOnUse" height="52.6301" width="56.464" x="487.797" y="241.833"><feFlood flood-opacity="0" result="BackgroundImageFix"/><feBlend in="SourceGraphic" in2="BackgroundImageFix" mode="normal" result="shape"/><feGaussianBlur result="effect1_foregroundBlur_2244_10011" stdDeviation="4.89053"/></filter><filter id="d" color-interpolation-filters="sRGB" filterUnits="userSpaceOnUse" height="62.8346" width="81.4809" x="484.071" y="276.667"><feFlood flood-opacity="0" result="BackgroundImageFix"/><feBlend in="SourceGraphic" in2="BackgroundImageFix" mode="normal" result="shape"/><feGaussianBlur result="effect1_foregroundBlur_2244_10011" stdDeviation="5.86863"/></filter><filter id="e" color-interpolation-filters="sRGB" filterUnits="userSpaceOnUse" height="78.3129" width="83.0118" x="95.5964" y="303.882"><feFlood flood-opacity="0" result="BackgroundImageFix"/><feBlend in="SourceGraphic" in2="BackgroundImageFix" mode="normal" result="shape"/><feGaussianBlur result="effect1_foregroundBlur_2244_10011" stdDeviation="7.82484"/></filter><filter id="f" color-interpolation-filters="sRGB" filterUnits="userSpaceOnUse" height="48.3403" width="50.3849" x="130.013" y="254.476"><feFlood flood-opacity="0" result="BackgroundImageFix"/><feBlend in="SourceGraphic" in2="BackgroundImageFix" mode="normal" result="shape"/><feGaussianBlur result="effect1_foregroundBlur_2244_10011" stdDeviation="4.89053"/></filter><filter id="g" color-interpolation-filters="sRGB" filterUnits="userSpaceOnUse" height="44.8703" width="47.3776" x="107.564" y="285.187"><feFlood flood-opacity="0" result="BackgroundImageFix"/><feBlend in="SourceGraphic" in2="BackgroundImageFix" mode="normal" result="shape"/><feGaussianBlur result="effect1_foregroundBlur_2244_10011" stdDeviation="4.89053"/></filter><filter id="h" color-interpolation-filters="sRGB" filterUnits="userSpaceOnUse" height="94.4948" width="104.438" x="374.932" y="409.056"><feFlood flood-opacity="0" result="BackgroundImageFix"/><feColorMatrix in="SourceAlpha" result="hardAlpha" type="matrix" values="0 0 0 0 0 0 0 0 0 0 0 0 0 0 0 0 0 0 127 0"/><feOffset dx="1.73044" dy="3.46089"/><feGaussianBlur stdDeviation="1.73044"/><feComposite in2="hardAlpha" operator="out"/><feColorMatrix type="matrix" values="0 0 0 0 0 0 0 0 0 0 0 0 0 0 0 0 0 0 0.25 0"/><feBlend in2="BackgroundImageFix" mode="normal" result="effect1_dropShadow_2244_10011"/><feBlend in="SourceGraphic" in2="effect1_dropShadow_2244_10011" mode="normal" result="shape"/></filter><filter id="i" color-interpolation-filters="sRGB" filterUnits="userSpaceOnUse" height="101.866" width="87.5971" x="229.798" y="422.501"><feFlood flood-opacity="0" result="BackgroundImageFix"/><feColorMatrix in="SourceAlpha" result="hardAlpha" type="matrix" values="0 0 0 0 0 0 0 0 0 0 0 0 0 0 0 0 0 0 127 0"/><feOffset dx="1.73044" dy="3.46089"/><feGaussianBlur stdDeviation="1.73044"/><feComposite in2="hardAlpha" operator="out"/><feColorMatrix type="matrix" values="0 0 0 0 0 0 0 0 0 0 0 0 0 0 0 0 0 0 0.25 0"/><feBlend in2="BackgroundImageFix" mode="normal" result="effect1_dropShadow_2244_10011"/><feBlend in="SourceGraphic" in2="effect1_dropShadow_2244_10011" mode="normal" result="shape"/></filter><filter id="j" color-interpolation-filters="sRGB" filterUnits="userSpaceOnUse" height="53.4985" width="62.4269" x="371.336" y="170.814"><feFlood flood-opacity="0" result="BackgroundImageFix"/><feBlend in="SourceGraphic" in2="BackgroundImageFix" mode="normal" result="shape"/><feGaussianBlur result="effect1_foregroundBlur_2244_10011" stdDeviation="4.89053"/></filter><filter id="k" color-interpolation-filters="sRGB" filterUnits="userSpaceOnUse" height="277.954" width="277.954" x="188.071" y="181.897"><feFlood flood-opacity="0" result="BackgroundImageFix"/><feColorMatrix in="SourceAlpha" result="hardAlpha" type="matrix" values="0 0 0 0 0 0 0 0 0 0 0 0 0 0 0 0 0 0 127 0"/><feOffset dx="5.92165" dy="5.92165"/><feGaussianBlur stdDeviation="2.96082"/><feComposite in2="hardAlpha" operator="out"/><feColorMatrix type="matrix" values="0 0 0 0 0.0927743 0 0 0 0 0.0887153 0 0 0 0 0.291667 0 0 0 0.25 0"/><feBlend in2="BackgroundImageFix" mode="normal" result="effect1_dropShadow_2244_10011"/><feBlend in="SourceGraphic" in2="effect1_dropShadow_2244_10011" mode="normal" result="shape"/></filter><filter id="l" color-interpolation-filters="sRGB" filterUnits="userSpaceOnUse" height="14.2225" width="56.8396" x="302.689" y="249.21"><feFlood flood-opacity="0" result="BackgroundImageFix"/><feBlend in="SourceGraphic" in2="BackgroundImageFix" mode="normal" result="shape"/><feGaussianBlur result="effect1_foregroundBlur_2244_10011" stdDeviation="1.48041"/></filter><filter id="m" color-interpolation-filters="sRGB" filterUnits="userSpaceOnUse" height="21.1142" width="37.7913" x="200.542" y="257.102"><feFlood flood-opacity="0" result="BackgroundImageFix"/><feBlend in="SourceGraphic" in2="BackgroundImageFix" mode="normal" result="shape"/><feGaussianBlur result="effect1_foregroundBlur_2244_10011" stdDeviation="1.48041"/></filter><filter id="n" color-interpolation-filters="sRGB" filterUnits="userSpaceOnUse" height="71.2436" width="91.0112" x="222.169" y="183.26"><feFlood flood-opacity="0" result="BackgroundImageFix"/><feBlend in="SourceGraphic" in2="BackgroundImageFix" mode="normal" result="shape"/><feGaussianBlur result="effect1_foregroundBlur_2244_10011" stdDeviation="5.86863"/></filter><filter id="o" color-interpolation-filters="sRGB" filterUnits="userSpaceOnUse" height="46.5557" width="70.808" x="296.977" y="194.487"><feFlood flood-opacity="0" result="BackgroundImageFix"/><feBlend in="SourceGraphic" in2="BackgroundImageFix" mode="normal" result="shape"/><feGaussianBlur result="effect1_foregroundBlur_2244_10011" stdDeviation="5.86863"/></filter><linearGradient id="p" gradientUnits="userSpaceOnUse" x1="479.778" x2="510.781" y1="330.53" y2="240.623"><stop offset="0" stop-color="#007cc5"/><stop offset=".306853" stop-color="#1dabff"/><stop offset=".444096" stop-color="#3eb7fe"/><stop offset=".840197" stop-color="#a5deff"/><stop offset=".979167" stop-color="#c4e9ff"/></linearGradient><linearGradient id="q"><stop offset="0" stop-color="#fff"/><stop offset="1" stop-color="#1facff" stop-opacity="0"/></linearGradient><radialGradient id="r" cx="0" cy="0" gradientTransform="matrix(-8.42737446 22.166571 -10.44809212 -3.97219691 502.965 239.603)" gradientUnits="userSpaceOnUse" r="1" xlink:href="#q"/><radialGradient id="s" cx="0" cy="0" gradientTransform="matrix(-8.4879477 30.3186772 -11.16896449 -3.12683782 522.616 271.51)" gradientUnits="userSpaceOnUse" r="1" xlink:href="#q"/><radialGradient id="t" cx="0" cy="0" gradientTransform="matrix(-9.69244008 47.99132819 -13.214492 -2.66882949 532.334 313.406)" gradientUnits="userSpaceOnUse" r="1" xlink:href="#q"/><linearGradient id="u" gradientUnits="userSpaceOnUse" x1="170.324" x2="132.991" y1="365.903" y2="270.741"><stop offset="0" stop-color="#0069a7"/><stop offset=".306853" stop-color="#1dabff"/><stop offset=".444096" stop-color="#3eb7fe"/><stop offset=".840197" stop-color="#a5deff"/><stop offset=".979167" stop-color="#c4e9ff"/></linearGradient><radialGradient id="v" cx="0" cy="0" gradientTransform="matrix(-8.48819221 49.85862382 -11.7051834 -1.99275148 143.689 348.567)" gradientUnits="userSpaceOnUse" r="1" xlink:href="#q"/><radialGradient id="w" cx="0" cy="0" gradientTransform="matrix(-8.48829608 21.97509126 -10.48069364 -4.04836684 161.793 281.083)" gradientUnits="userSpaceOnUse" r="1" xlink:href="#q"/><radialGradient id="x" cx="0" cy="0" gradientTransform="matrix(-5.03236959 26.05190739 -6.88376745 -1.32971692 135.158 310.511)" gradientUnits="userSpaceOnUse" r="1" xlink:href="#q"/><linearGradient id="y" gradientUnits="userSpaceOnUse" x1="411.886" x2="382.663" y1="431.378" y2="448.916"><stop offset="0" stop-color="#382f27"/><stop offset="1" stop-color="#211c16"/></linearGradient><linearGradient id="z" gradientUnits="userSpaceOnUse" x1="277.687" x2="312.629" y1="451.695" y2="460.904"><stop offset="0" stop-color="#544538"/><stop offset="1" stop-color="#221c16"/></linearGradient><linearGradient id="A" gradientUnits="userSpaceOnUse" x1="402.629" x2="370.574" y1="213.524" y2="143.781"><stop offset=".0383793" stop-color="#1fabfe"/><stop offset=".306853" stop-color="#1dabff"/><stop offset=".444096" stop-color="#3eb7fe"/><stop offset=".840197" stop-color="#a5deff"/><stop offset=".979167" stop-color="#c4e9ff"/></linearGradient><radialGradient id="B" cx="0" cy="0" gradientTransform="matrix(-8.48846034 35.54550697 -11.39459883 -2.72109216 409.137 201.504)" gradientUnits="userSpaceOnUse" r="1" xlink:href="#q"/><linearGradient id="C" gradientUnits="userSpaceOnUse" x1="219.403" x2="405.243" y1="228.879" y2="413.741"><stop offset="0" stop-color="#8bd4ff"/><stop offset=".458754" stop-color="#00a1ff"/><stop offset=".862585" stop-color="#0076bb"/><stop offset=".979167" stop-color="#005d94"/></linearGradient><linearGradient id="D" gradientUnits="userSpaceOnUse" x1="256.877" x2="241.711" y1="343.842" y2="253.765"><stop offset="0" stop-color="#1dabff"/><stop offset=".326858" stop-color="#3eb7fe"/><stop offset=".840197" stop-color="#a5deff"/><stop offset=".979167" stop-color="#c4e9ff"/></linearGradient><radialGradient id="E" cx="0" cy="0" gradientTransform="matrix(-14.85970709 59.55917271 -29.21610919 -7.28926889 275.67 225.381)" gradientUnits="userSpaceOnUse" r="1"><stop offset="0" stop-color="#fff"/><stop offset="1" stop-color="#018ddf" stop-opacity="0"/></radialGradient><radialGradient id="F" cx="0" cy="0" gradientTransform="matrix(-11.84766576 21.74098912 -3.93725488 -2.14559143 336.617 222.079)" gradientUnits="userSpaceOnUse" r="1"><stop offset="0" stop-color="#fff"/><stop offset="1" stop-color="#c4eaff"/></radialGradient><linearGradient id="G" gradientUnits="userSpaceOnUse" x1="250.898" x2="303.021" y1="394.762" y2="491.459"><stop offset="0" stop-color="#fff"/><stop offset=".373612" stop-color="#d9d9d9"/><stop offset="1" stop-color="#5c5d5e"/></linearGradient><linearGradient id="H" gradientUnits="userSpaceOnUse" x1="241.359" x2="267.111" y1="234.464" y2="279.692"><stop offset="0" stop-color="#47382e"/><stop offset="1" stop-color="#191410"/></linearGradient><radialGradient id="I" cx="0" cy="0" gradientTransform="matrix(-16.33265562 -27.67761572 46.14764632 -27.23188379 253.281 330.826)" gradientUnits="userSpaceOnUse" r="1"><stop offset="0" stop-color="#6d5949"/><stop offset=".524699" stop-color="#493b30"/><stop offset="1" stop-color="#18130f"/></radialGradient><g filter="url(#a)"><path clip-rule="evenodd" d="m144.68 577.573c-4.135-31.068 17.697-59.617 48.765-63.752l318.933-42.448c31.068-4.135 59.608 17.718 63.743 48.786l4.379 32.899c-29.067 3.869-49.494 30.568-45.626 59.635 3.869 29.067 30.569 49.494 59.635 45.626l3.811 28.632c4.135 31.069-17.697 59.617-48.765 63.752l-318.933 42.448c-31.068 4.135-59.607-17.707-63.742-48.775l-3.811-28.635h.001c29.067-3.869 49.495-30.568 45.626-59.636-3.869-29.067-30.568-49.494-59.636-45.625z" fill="#cfff00" fill-rule="evenodd"/></g><g fill="#000"><path d="m247.521 637.124-7.027-51.488 31.541-4.305 1.474 10.802-18.939 2.585 1.474 10.801 15.699-2.142 1.474 10.802-15.698 2.142 2.604 19.083zm36.459-18.913-5.16-37.806 12.458-1.7 4.933 36.15c.482 3.528 1.297 4.664 4.106 4.281.792-.109 1.502-.279 1.502-.279l1.474 10.802s-1.698.452-3.715.727c-6.625.904-13.898.283-15.598-12.175zm24.113-2.631-3.282-24.052 12.458-1.7 2.968 21.748c.472 3.456 2.036 4.71 4.629 4.356 5.329-.728 7.21-5.752 6.453-11.297l-2.241-16.419 12.458-1.7 5.062 37.086-11.954 1.631-.442-3.24c-.167-1.224-.171-2.324-.171-2.324l-.144.019c-1.475 4.236-5.75 7.314-10.719 7.992-7.345 1.002-13.649-1.658-15.075-12.1zm48.465-7.275-1.778-13.034-4.753.649-1.327-9.722 5.113-.697-1.455-10.658 12.098-1.651 1.455 10.658 7.777-1.062 1.327 9.722-7.778 1.061 1.553 11.378c.57 4.176 4.898 4.173 7.274 3.848 1.008-.137 1.646-.298 1.646-.298l1.475 10.802s-1.339.403-3.355.678c-5.905.806-17.571.784-19.272-11.674zm30.636-4.181-1.779-13.034-4.752.649-1.327-9.722 5.113-.698-1.455-10.657 12.098-1.651 1.454 10.657 7.778-1.061 1.326 9.721-7.777 1.062 1.553 11.378c.57 4.176 4.897 4.172 7.274 3.848 1.008-.138 1.646-.298 1.646-.298l1.474 10.802s-1.338.402-3.355.678c-5.904.806-17.57.784-19.271-11.674zm25.431-8.459c-1.484-10.873 4.701-20.373 16.655-22.005 10.946-1.494 18.181 5.294 19.586 15.592.167 1.224.243 3.928.243 3.928l-23.404 3.194c1.555 4.409 5.585 5.986 9.546 5.446 5.328-.728 9.714-5.141 9.714-5.141l5.798 8.085s-5.24 6.216-15.105 7.563c-13.25 1.808-21.687-6.796-23.033-16.662zm12.395-6.459 10.874-1.484c-.384-2.809-2.672-5.064-5.624-4.661-3.601.491-4.975 3.32-5.25 6.145zm34.13 19.034-5.062-37.085 11.954-1.632.855 6.265c.167 1.224.171 2.324.171 2.324l.144-.02c.896-5.257 5.007-10.072 10.552-10.829.72-.098 1.459-.052 1.459-.052l1.671 12.242s-1.037-.079-2.55.127c-2.952.403-7.649 1.998-8.693 7.789-.245 1.427-.235 3.113.04 5.129l1.917 14.042zm-147.198 90.739-7.027-51.488 18.291-2.496c16.202-2.211 27.859 5.807 30.071 22.009 2.211 16.203-6.841 27.267-23.044 29.479zm11.128-12.521 5.185-.708c8.713-1.189 13.334-7.101 11.988-16.967-1.337-9.793-7.57-14.077-16.067-12.918l-5.185.708zm37.585-5.424c-1.474-10.801 14.129-14.178 19.89-14.964l.504-.069-.088-.648c-.423-3.096-2.937-3.78-6.033-3.358-4.681.639-9.528 4.895-9.528 4.895l-5.52-8.196s5.751-5.699 14.896-6.947c10.442-1.425 17.483 3.408 18.771 12.842l3.115 22.827-11.378 1.553-.304-2.232c-.167-1.224-.171-2.324-.171-2.324l-.144.02s-1.999 5.774-9.776 6.835c-6.913.944-13.231-2.888-14.234-10.234zm12.442-2.358c.236 1.728 1.503 2.949 3.951 2.615 3.24-.442 5.639-4.364 5.227-7.388l-.109-.792-1.152.157c-3.96.54-8.34 2.312-7.917 5.408zm30.097 20.612 2.713-9.686s2.203 1.093 4.003.848c2.016-.276 4.602-1.215 5.466-4.561l.484-1.826-20.734-34.214 14.115-1.926 7.802 16.32c.923 1.928 2.154 5.574 2.154 5.574l.144-.02s.239-3.627.468-5.712l2.322-17.921 13.61-1.858-9.593 43.12c-1.966 8.704-8.054 12.469-13.959 13.275-4.896.669-8.995-1.413-8.995-1.413z"/><path d="m251.709 753.158 8.922-17.462c.749-1.471 1.418-2.17 1.418-2.17l-.008-.059s-.381.111-1.459.255l-8.805 1.172.217-3.412 14.614-1.945-.181 2.767-10.465 20.288zm14.477-1.926.208-3.929 3.834-.51-.239 3.932zm15.807-2.104 1.303-21.812 3.653-.487 7.324 11.521c.732 1.152 1.546 3.147 1.546 3.147l.06-.008s-.091-2.06-.019-3.35l.762-12.597 3.833-.51-1.303 21.812-3.653.486-7.29-11.495c-.737-1.182-1.577-3.142-1.577-3.142l-.06.008s.092 2.06.02 3.35l-.766 12.567zm21.335-9.362c-.705-5.3 3.444-9.845 8.206-10.479 4.402-.586 7.879 1.725 8.413 5.738.713 5.36-3.5 9.883-8.231 10.513-4.373.582-7.846-1.699-8.388-5.772zm3.809-.69c.303 2.276 2.052 3.506 4.208 3.219 2.725-.362 5.221-3.133 4.771-6.517-.299-2.246-2.026-3.54-4.182-3.253-2.725.363-5.243 3.197-4.797 6.551zm18.847 4.197-4.579-14.934 3.774-.502 2.581 9.317c.165.557.426 2.29.426 2.29l.06-.008s.322-1.475.682-2.437l3.737-10.159 4.043-.538-6.412 16.397zm11.443-7.832c-.689-5.181 2.488-9.931 7.579-10.609 4.103-.546 6.428 1.583 6.879 4.967.175 1.317-.149 3.006-.149 3.006l-10.511 1.399c-.002.214.022.393.046.573.259 1.947 1.78 3.299 4.235 2.972 2.456-.327 4.509-2.307 4.509-2.307l1.404 2.769s-2.308 2.349-5.692 2.8c-4.761.634-7.809-1.887-8.3-5.57zm4.05-3.922 6.648-.885s.016-.337-.028-.667c-.211-1.587-1.323-2.383-2.76-2.192-1.947.259-3.362 1.758-3.86 3.744zm13.029 7.958.932-15.668 3.683-.49-.11 1.691c-.044.585-.166 1.272-.166 1.272l.06-.008c.755-1.655 2.534-3.629 4.93-3.948 2.425-.323 3.831.618 4.461 2.606l.06-.008c.859-1.79 2.845-3.578 5.181-3.889 2.666-.355 4.48.684 4.859 3.529.083.628.085 1.329.039 2.128l-.571 9.676-3.773.502.537-9.245c.044-.585.022-.978-.03-1.367-.143-1.079-.658-1.741-1.946-1.57-2.456.327-3.95 3.299-4.126 6.096l-.425 6.883-3.803.506.567-9.249c.044-.585.022-.978-.033-1.397-.14-1.048-.625-1.715-1.913-1.544-2.395.319-4.017 3.247-4.185 6.104l-.425 6.884zm27.343-3.639 1.303-21.813 3.773-.502-.367 6.632c-.05.769-.176 1.425-.176 1.425l.06-.007c.873-1.458 2.55-2.595 4.347-2.834 3.654-.487 6.115 1.746 6.637 5.669.753 5.66-2.861 10.103-7.054 10.661-1.887.251-3.787-.288-4.845-1.824l-.06.008s.038.513.024 1.094l-.078 1.016zm4.202-6.899c.247 1.857 1.349 3.264 3.445 2.985 2.276-.302 4.613-2.899 4.102-6.732-.283-2.127-1.596-3.293-3.482-3.042-2.516.335-4.519 3.375-4.065 6.789zm13.609-1.781c-.689-5.181 2.488-9.931 7.579-10.609 4.103-.546 6.428 1.583 6.878 4.967.176 1.318-.148 3.006-.148 3.006l-10.511 1.399c-.003.214.021.394.045.573.259 1.947 1.78 3.299 4.236 2.972s4.508-2.307 4.508-2.307l1.405 2.77s-2.308 2.349-5.692 2.799c-4.762.634-7.81-1.886-8.3-5.57zm4.05-3.922 6.648-.884s.016-.338-.028-.667c-.211-1.587-1.323-2.384-2.76-2.193-1.947.259-3.363 1.758-3.86 3.744zm13.028 7.958.932-15.667 3.654-.487-.159 2.703c-.044.585-.152 1.148-.152 1.148l.03-.004c.739-2.231 2.589-4.367 4.924-4.678.48-.064.907-.06.907-.06l-.251 3.843s-.367-.012-.906.06c-2.276.303-4.632 3.207-4.849 7.076l-.327 5.56zm18.857-2.51c-1.198-9.684 11.302-12.171 10.62-17.292-.203-1.527-1.452-2.214-3.01-2.007-2.605.347-4.037 3.098-4.037 3.098l-3.008-1.764s2.277-4.417 7.068-5.055c3.444-.458 6.594 1.225 7.06 4.729.945 7.097-9.702 10.221-10.195 14.31l9.763-1.3-.216 3.412zm18.049-9.351c-.722-5.42.427-15.112 7.733-16.085 4.882-.649 6.979 2.058 7.541 6.281.722 5.42-.422 15.142-7.759 16.119-4.822.641-6.949-2.062-7.515-6.315zm3.967-.65c.299 2.246 1.251 3.674 3.197 3.415 4.043-.538 4.636-7.992 4.125-11.826-.307-2.305-1.225-3.707-3.201-3.444-3.923.522-4.663 7.783-4.121 11.855zm14.276 5.171c-1.197-9.685 11.303-12.171 10.621-17.292-.203-1.527-1.453-2.214-3.01-2.007-2.605.347-4.037 3.097-4.037 3.097l-3.008-1.763s2.276-4.418 7.068-5.055c3.444-.459 6.594 1.225 7.06 4.729.945 7.097-9.703 10.221-10.195 14.309l9.763-1.299-.217 3.412zm16.615-7.789.134-2.425 9.654-14.939 4.912-.653-.752 12.9 2.725-.363-.202 3.288-2.725.363-.349 5.624-3.803.506.348-5.624zm4.575-3.87 5.54-.737.411-6.76c.07-1.076.274-2.291.274-2.291l-.06.008s-.537 1.229-1.149 2.134l-5.024 7.587z"/><path d="m200.373 562.132 2.003-3.04s2.162 1.815 5.366 1.389c1.677-.223 3.522-1.474 3.259-3.451-.418-3.144-8.756-2.126-9.521-7.876-.506-3.803 2.793-6.955 6.836-7.493 4.522-.602 6.865 1.433 6.865 1.433l-1.718 3.124s-1.978-1.352-4.703-.989c-1.947.259-3.602 1.79-3.387 3.407.407 3.054 8.736 1.976 9.521 7.876.47 3.534-2.335 6.955-6.737 7.541-5.031.669-7.784-1.921-7.784-1.921zm18.521-18.069.209-3.472 3.803-.506-.208 3.472zm-1.094 18.34.932-15.667 3.803-.506-.962 15.671zm7.371-7.503c-.65-4.881 2.875-9.769 8.236-10.483 4.132-.55 6.228 1.457 6.228 1.457l-1.688 2.663s-1.594-1.22-3.93-.909c-3.205.426-5.417 3.494-5.015 6.519.283 2.126 1.94 3.581 4.426 3.251 2.575-.343 4.652-2.601 4.652-2.601l1.408 2.8s-2.276 2.589-6.079 3.095c-4.642.617-7.72-1.899-8.238-5.792zm16.931 4.269 1.303-21.812 3.803-.506-.427 7.554c-.05.768-.15 1.391-.15 1.391l.06-.008c.617-1.545 2.644-3.491 5.22-3.834 2.695-.358 4.745.618 5.135 3.553.076.569.066 1.18.034 1.855l-.573 9.89-3.804.506.55-9.155c.022-.521.018-1.008-.034-1.398-.171-1.287-.936-1.765-2.134-1.605-2.635.35-4.58 3.139-4.749 5.996l-.43 7.067zm17.84-8.683c-.689-5.181 2.488-9.932 7.579-10.609 4.103-.546 6.428 1.582 6.878 4.966.176 1.318-.148 3.007-.148 3.007l-10.511 1.399c-.002.214.022.393.046.573.259 1.946 1.78 3.298 4.235 2.971 2.456-.326 4.509-2.306 4.509-2.306l1.404 2.769s-2.308 2.349-5.692 2.8c-4.761.633-7.809-1.887-8.3-5.57zm4.05-3.922 6.648-.885s.016-.337-.028-.667c-.211-1.587-1.323-2.384-2.76-2.192-1.947.259-3.362 1.758-3.86 3.744zm13.028 7.958.932-15.668 3.654-.486-.158 2.703c-.044.585-.152 1.148-.152 1.148l.03-.004c.739-2.232 2.588-4.368 4.924-4.678.479-.064.906-.06.906-.06l-.25 3.843s-.368-.012-.907.06c-2.276.302-4.632 3.207-4.849 7.076l-.326 5.559zm18.655-8.609c-.762-5.72 2.763-10.151 7.195-10.741 1.647-.219 3.528.171 4.502 1.534l.06-.008s-.038-.513-.004-.944l.413-6.973 3.803-.506-1.303 21.812-3.593.478.088-1.17c.036-.645.118-1.174.118-1.174l-.06.008c-.819 1.633-2.464 3.01-4.561 3.289-3.683.49-6.14-1.712-6.658-5.605zm3.827-.784c.283 2.126 1.626 3.289 3.513 3.038 2.545-.339 4.469-3.521 4.038-6.755-.247-1.857-1.353-3.295-3.449-3.016-2.276.303-4.608 2.93-4.102 6.733zm16.134-13.942.208-3.471 3.803-.507-.208 3.472zm-1.095 18.341.932-15.668 3.804-.506-.962 15.672zm7.955-1.059.932-15.667 3.653-.487-.158 2.703c-.044.585-.152 1.148-.152 1.148l.03-.004c.739-2.231 2.588-4.367 4.924-4.678.479-.064.907-.06.907-.06l-.251 3.843s-.367-.012-.906.06c-2.276.303-4.633 3.207-4.849 7.076l-.327 5.56zm18.654-8.609c-.761-5.719 2.764-10.151 7.196-10.74 1.647-.22 3.527.17 4.501 1.534l.06-.008s-.038-.513-.004-.944l.413-6.974 3.803-.506-1.302 21.812-3.594.479.088-1.17c.036-.645.118-1.174.118-1.174l-.06.008c-.819 1.633-2.464 3.01-4.56 3.289-3.684.49-6.141-1.713-6.659-5.606zm3.827-.783c.283 2.126 1.627 3.288 3.513 3.037 2.546-.339 4.469-3.521 4.039-6.755-.247-1.856-1.353-3.294-3.449-3.015-2.276.303-4.609 2.929-4.103 6.733zm14.514-1.841c-.689-5.18 2.488-9.931 7.579-10.609 4.103-.546 6.428 1.583 6.878 4.967.176 1.318-.148 3.007-.148 3.007l-10.511 1.399c-.002.213.022.393.045.573.26 1.946 1.78 3.298 4.236 2.971s4.508-2.307 4.508-2.307l1.405 2.77s-2.308 2.349-5.692 2.799c-4.762.634-7.809-1.886-8.3-5.57zm4.05-3.922 6.648-.884s.016-.338-.028-.667c-.211-1.587-1.323-2.384-2.76-2.193-1.947.259-3.363 1.758-3.86 3.744zm14.123-10.382.208-3.472 3.803-.506-.208 3.472zm-1.095 18.34.932-15.667 3.804-.506-.962 15.671zm7.955-1.059.932-15.667 3.683-.49-.086 1.413c-.05.769-.19 1.549-.19 1.549l.06-.008c.647-1.549 2.714-3.652 5.379-4.007 2.695-.359 4.775.614 5.166 3.549.076.569.026 1.337-.006 2.012l-.564 9.736-3.803.507.553-9.126c.022-.521.044-1.042-.007-1.431-.172-1.288-.966-1.761-2.164-1.602-2.635.351-4.581 3.139-4.749 5.996l-.401 7.063zm30.557-4.067 1.087-18.4-6.918.921.186-3.408 17.729-2.359-.187 3.407-6.947.925-1.117 18.404zm14.053-20.065.209-3.471 3.803-.507-.209 3.472zm-1.094 18.341.932-15.668 3.803-.506-.962 15.672zm7.371-7.503c-.65-4.882 2.875-9.77 8.236-10.483 4.132-.55 6.228 1.456 6.228 1.456l-1.688 2.663s-1.594-1.22-3.93-.909c-3.205.426-5.417 3.494-5.015 6.519.283 2.126 1.94 3.582 4.426 3.251 2.575-.343 4.652-2.6 4.652-2.6l1.408 2.799s-2.276 2.589-6.079 3.095c-4.642.618-7.72-1.898-8.238-5.791zm16.931 4.268 1.303-21.812 3.803-.506-.701 11.675 1.827-.244 4.044-6.024 4.492-.597-5.416 7.852.008.06 4.805 7.711-4.043.538-3.734-6.299-2.156.287-.429 6.853zm15.793-8.41c-.689-5.181 2.488-9.932 7.579-10.609 4.103-.546 6.428 1.582 6.878 4.966.176 1.318-.148 3.007-.148 3.007l-10.511 1.399c-.002.213.022.393.045.573.259 1.946 1.78 3.298 4.236 2.971s4.508-2.306 4.508-2.306l1.405 2.769s-2.308 2.349-5.692 2.799c-4.762.634-7.81-1.886-8.3-5.569zm4.05-3.922 6.648-.885s.016-.338-.028-.667c-.211-1.587-1.323-2.384-2.76-2.193-1.947.259-3.363 1.758-3.86 3.745zm14.018 3.254c-.056-.419-.034-.94-.012-1.461l.385-6.269-1.947.259.167-3.1 2.066-.275.287-4.488 3.653-.486-.287 4.488 3.504-.467-.166 3.101-3.504.466-.337 5.714c-.026.491.012 1.004.044 1.243.231 1.737 1.529 1.869 2.667 1.718.479-.064.83-.172.83-.172l-.216 3.412s-.557.166-1.096.237c-2.755.367-5.564-.356-6.038-3.92zm11.76-3.241.622-15.474 3.953-.526-1.251 15.557zm-.531 6.318.245-3.659 3.683-.49-.244 3.659z"/></g><path d="m507.19 224.843c-22.046-15.341-51.857 17.336-71.95 52.261l5.878 27.35c56.674 50.329 102.463 34.542 111.82 16.23 7.485-14.649-13.814-28.792-25.399-34.033 3.529-3.056 9.612-11.755 5.707-22.11-3.904-10.354-16.592-13.947-22.449-14.449 4.605-5.432 5.878-17.738-3.607-25.249z" fill="url(#p)"/><g filter="url(#b)"><ellipse cx="496.425" cy="237.145" fill="url(#r)" fill-opacity=".9" rx="15.9261" ry="13.7988" transform="matrix(-.06501475 -.9978843 .9978843 -.06501475 292.056674 747.937638)"/></g><g filter="url(#c)"><ellipse cx="516.029" cy="268.148" fill="url(#s)" fill-opacity=".8" rx="16.0407" ry="18.8735" transform="matrix(.40164571 -.91579513 .91579513 .40164571 63.199534 633.024353)"/></g><g filter="url(#d)"><ellipse cx="524.812" cy="308.084" fill="url(#t)" fill-opacity=".8" rx="18.3169" ry="29.8748" transform="matrix(.30448196 -.9525181 .9525181 .30448196 71.560627 714.170911)"/></g><path d="m141.974 267.197c10.015-12.646 31.806-3.862 53.301 19.817 8.968 5.488 20.993 24.311-2.652 55.698-29.556 39.232-71.164 38.66-80.904 24.592-7.791-11.253 6.259-30.448 14.258-38.638-2.864-2.369-8.339-9.569-7.321-19.415 1.019-9.845 13.41-15.404 19.478-16.953-2.058-4.152-4.171-14.984 3.84-25.101z" fill="url(#u)"/><g filter="url(#e)"><ellipse cx="137.102" cy="343.038" fill="url(#v)" fill-opacity=".8" rx="16.0407" ry="31.0372" transform="matrix(-.64652352 -.76289406 .76289406 -.64652352 -35.959984 669.414436)"/></g><g filter="url(#f)"><ellipse cx="155.206" cy="278.646" fill="url(#w)" fill-opacity=".8" rx="16.0407" ry="13.6796" transform="matrix(-.84651852 -.53235927 .53235927 -.84651852 138.250974 597.150353)"/></g><g filter="url(#g)"><ellipse cx="131.252" cy="307.623" fill="url(#x)" fill-opacity=".8" rx="9.50986" ry="16.2174" transform="matrix(-.63536418 -.77221264 .77221264 -.63536418 -22.90555 604.430088)"/></g><g filter="url(#h)"><path d="m390.144 449.48c-4.175-8.871-10.727-17.296-13.482-20.4 2.496-8.997 10.128-25.264 20.691-18.364s22.679 32.297 26.693 41.681c0 0 14.647-3.195 30.327 4.126 15.425 7.201 24.502 24.73 17.289 27.68-4.858 1.987-11.476-3.575-14.289-5.702 1.88 2.974 1.346 9.86-4.247 11.18-8.697 2.052-11.647-3.446-15.769-8.448 1.606 4.567 3.01 11.58-3.971 14.565-5.896 2.522-13.461-.973-17.946-6.787-4.015-5.205-15.471-2.675-15.471-2.675-9.372-5.1-4.607-25.767-9.825-36.856z" fill="url(#y)"/></g><g filter="url(#i)"><path d="m304.681 461.144c1.645-9.665 5.7-19.538 7.522-23.267-4.815-7.998-16.527-21.626-24.855-12.147-8.327 9.479-13.195 37.192-14.547 47.309 0 0-14.968.847-28.113 12.102-12.931 11.072-16.978 30.392-9.239 31.301 5.214.612 10.099-6.519 12.239-9.322-1.014 3.368 1.346 9.859 7.087 9.632 8.93-.353 10.299-6.441 12.929-12.364-.323 4.83.203 11.963 7.728 12.968 6.357.849 12.708-4.545 15.472-11.348 2.473-6.09 14.188-6.723 14.188-6.723 7.662-7.425-2.466-26.059-.411-38.141z" fill="url(#z)"/></g><path d="m418.398 213.684c16.508-12.57 6.845-28.684-1.878-29.865 43.141-78.057-85.729-52.075-71.392 16.985 18.921 8.483 60.065 22.937 73.27 12.88z" fill="url(#A)"/><g filter="url(#j)"><ellipse cx="402.549" cy="197.563" fill="url(#B)" fill-opacity=".8" rx="16.0407" ry="22.1273" transform="matrix(-.3623567 -.93203949 .93203949 -.3623567 364.27881 644.342844)"/></g><g filter="url(#k)"><circle cx="321.126" cy="314.953" fill="url(#C)" r="133.022" transform="matrix(.91111361 .41215531 -.41215531 .91111361 158.353283 -104.358749)"/></g><path d="m350.807 211.363c-30.079-17.042-64.949-15.425-89.901 18.376-48.206-23.954-95.989 53.195-52.789 83.472 21.6 15.139 47.105-4.456 58.392-29.408 22.852 13.558 51.616 29.861 81.381 15.093 31.426-15.593 40.515-66.231 2.917-87.533z" fill="url(#D)"/><path d="m356.55 257.982-51.008-5.898-.085-2.185 50.584-5.03z" fill="#000"/><path d="m203.504 273.558.149-7.447 31.233-7.342.488 1.294z" fill="#000"/><g filter="url(#l)"><path d="m356.567 258.144-.241 2.328-50.677-8.301z" fill="#00a1ff"/></g><g filter="url(#m)"><path d="m204.882 275.255-1.38-1.697 31.87-13.496z" fill="#00a1ff"/></g><g filter="url(#n)"><ellipse cx="267.675" cy="218.882" fill="url(#E)" fill-opacity=".7" rx="19.4681" ry="36.4855" transform="matrix(-.44841442 -.89382577 .89382577 -.44841442 192.061956 556.286658)"/></g><g filter="url(#o)"><ellipse cx="332.381" cy="217.765" fill="url(#F)" rx="10.3157" ry="24.2231" transform="matrix(.23587489 -.97178343 .97178343 .23587489 42.36025 489.402054)"/></g><path d="m233.422 345.063c-5.503-7.406-26.478 39.551-11.71 59.113 48.185 57.224 121.434 49.565 158.309 29.746 64.703-56.463-9.958-118.575-49.205-104.185-1.034.379-1.706 1.387-1.819 2.482-5.321 51.422-71.917 44.69-95.575 12.844z" fill="url(#G)"/><path d="m292.748 278.016c11.347 4.255 17.29 4.644 16.923 18.044l-15.152 6.863-22.036-22.856-28.928-48.676.675.305c14.676 19.638 29.527 39.198 48.518 46.32z" fill="#493b30"/><path d="m309.031 219.575s26.511-8.318 48.695 12.095" stroke="#000" stroke-linecap="round" stroke-width="2.96082"/><path d="m237.392 239.004s-21.815-3.212-35.495 19.846" stroke="#000" stroke-linecap="round" stroke-width="2.96082"/><path d="m244.234 231.982c9.014 16.298 29.208 53.128 61.086 62.934 1.366.42 1.501 2.303.126 2.692-20.133 5.701-29.554-15.79-40.048-15.711-11.204.085-17.701 17.379-18.924 27.203-4.027-18.12-10.38-58.811-4.683-76.934.365-1.158 1.855-1.246 2.443-.184z" fill="url(#H)" stroke="#665445" stroke-width="2.96082"/><path d="m253.829 333.981c14.203-13.113 53.707-12.526 55.845-37.919 0 0-9.842-1.466-16.027-2.973-14.069-3.429-24.039-18.487-34.625-13.267-15.1 7.446-17.51 38.312-10.152 53.724.894 1.873 3.434 1.842 4.959.435z" fill="url(#I)"/></svg>
