<svg fill="none" viewBox="0 0 625 693" xmlns="http://www.w3.org/2000/svg" xmlns:xlink="http://www.w3.org/1999/xlink">
  <title>Flutter day dash with ticket</title>
  <filter id="a" color-interpolation-filters="sRGB" filterUnits="userSpaceOnUse" height="322.626" width="399.384" x="139.31" y="42.0186"><feFlood flood-opacity="0" result="BackgroundImageFix"/><feColorMatrix in="SourceAlpha" result="hardAlpha" type="matrix" values="0 0 0 0 0 0 0 0 0 0 0 0 0 0 0 0 0 0 127 0"/><feOffset dy="4"/><feGaussianBlur stdDeviation="2"/><feComposite in2="hardAlpha" operator="out"/><feColorMatrix type="matrix" values="0 0 0 0 0 0 0 0 0 0 0 0 0 0 0 0 0 0 0.25 0"/><feBlend in2="BackgroundImageFix" mode="normal" result="effect1_dropShadow_2169_25185"/><feBlend in="SourceGraphic" in2="effect1_dropShadow_2169_25185" mode="normal" result="shape"/></filter><filter id="b" color-interpolation-filters="sRGB" filterUnits="userSpaceOnUse" height="91.8755" width="84.5063" x="342.92" y="42.0186"><feFlood flood-opacity="0" result="BackgroundImageFix"/><feBlend in="SourceGraphic" in2="BackgroundImageFix" mode="normal" result="shape"/><feColorMatrix in="SourceAlpha" result="hardAlpha" type="matrix" values="0 0 0 0 0 0 0 0 0 0 0 0 0 0 0 0 0 0 127 0"/><feOffset dy="10.6806"/><feGaussianBlur stdDeviation="5.34028"/><feComposite in2="hardAlpha" k2="-1" k3="1" operator="arithmetic"/><feColorMatrix type="matrix" values="0 0 0 0 1 0 0 0 0 1 0 0 0 0 1 0 0 0 0.25 0"/><feBlend in2="shape" mode="normal" result="effect1_innerShadow_2169_25185"/></filter><filter id="c" color-interpolation-filters="sRGB" filterUnits="userSpaceOnUse" height="35.9451" width="50.9593" x="380.253" y="80.53"><feFlood flood-opacity="0" result="BackgroundImageFix"/><feBlend in="SourceGraphic" in2="BackgroundImageFix" mode="normal" result="shape"/><feGaussianBlur result="effect1_foregroundBlur_2169_25185" stdDeviation="5.34028"/></filter><filter id="d" color-interpolation-filters="sRGB" filterUnits="userSpaceOnUse" height="35.9451" width="50.9593" x="380.253" y="80.53"><feFlood flood-opacity="0" result="BackgroundImageFix"/><feBlend in="SourceGraphic" in2="BackgroundImageFix" mode="normal" result="shape"/><feGaussianBlur result="effect1_foregroundBlur_2169_25185" stdDeviation="5.34028"/></filter><filter id="e" color-interpolation-filters="sRGB" filterUnits="userSpaceOnUse" height="289.353" width="281.342" x="210.286" y="77.9723"><feFlood flood-opacity="0" result="BackgroundImageFix"/><feBlend in="SourceGraphic" in2="BackgroundImageFix" mode="normal" result="shape"/><feColorMatrix in="SourceAlpha" result="hardAlpha" type="matrix" values="0 0 0 0 0 0 0 0 0 0 0 0 0 0 0 0 0 0 127 0"/><feOffset dx="-5.34028" dy="-13.3507"/><feGaussianBlur stdDeviation="16.0209"/><feComposite in2="hardAlpha" k2="-1" k3="1" operator="arithmetic"/><feColorMatrix type="matrix" values="0 0 0 0 0.00784314 0 0 0 0 0.439216 0 0 0 0 0.698039 0 0 0 0.7 0"/><feBlend in2="shape" mode="normal" result="effect1_innerShadow_2169_25185"/><feColorMatrix in="SourceAlpha" result="hardAlpha" type="matrix" values="0 0 0 0 0 0 0 0 0 0 0 0 0 0 0 0 0 0 127 0"/><feOffset dx="10.6806" dy="10.6806"/><feGaussianBlur stdDeviation="5.34028"/><feComposite in2="hardAlpha" k2="-1" k3="1" operator="arithmetic"/><feColorMatrix type="matrix" values="0 0 0 0 0.987874 0 0 0 0 0.987874 0 0 0 0 0.987874 0 0 0 0.25 0"/><feBlend in2="effect1_innerShadow_2169_25185" mode="normal" result="effect2_innerShadow_2169_25185"/></filter><filter id="f" color-interpolation-filters="sRGB" filterUnits="userSpaceOnUse" height="94.7271" width="121.717" x="423.657" y="222.053"><feFlood flood-opacity="0" result="BackgroundImageFix"/><feBlend in="SourceGraphic" in2="BackgroundImageFix" mode="normal" result="shape"/><feColorMatrix in="SourceAlpha" result="hardAlpha" type="matrix" values="0 0 0 0 0 0 0 0 0 0 0 0 0 0 0 0 0 0 127 0"/><feOffset dx="-13.3507" dy="10.6806"/><feGaussianBlur stdDeviation="5.34028"/><feComposite in2="hardAlpha" k2="-1" k3="1" operator="arithmetic"/><feColorMatrix type="matrix" values="0 0 0 0 0.942074 0 0 0 0 0.942074 0 0 0 0 0.942074 0 0 0 0.25 0"/><feBlend in2="shape" mode="normal" result="effect1_innerShadow_2169_25185"/><feColorMatrix in="SourceAlpha" result="hardAlpha" type="matrix" values="0 0 0 0 0 0 0 0 0 0 0 0 0 0 0 0 0 0 127 0"/><feOffset dx="16.0209" dy="-10.6806"/><feGaussianBlur stdDeviation="5.34028"/><feComposite in2="hardAlpha" k2="-1" k3="1" operator="arithmetic"/><feColorMatrix type="matrix" values="0 0 0 0 0 0 0 0 0 0.386749 0 0 0 0 0.615283 0 0 0 0.7 0"/><feBlend in2="effect1_innerShadow_2169_25185" mode="normal" result="effect2_innerShadow_2169_25185"/></filter><filter id="g" color-interpolation-filters="sRGB" filterUnits="userSpaceOnUse" height="54.384" width="45.0486" x="478.01" y="257.569"><feFlood flood-opacity="0" result="BackgroundImageFix"/><feBlend in="SourceGraphic" in2="BackgroundImageFix" mode="normal" result="shape"/><feGaussianBlur result="effect1_foregroundBlur_2169_25185" stdDeviation="5.34028"/></filter><filter id="h" color-interpolation-filters="sRGB" filterUnits="userSpaceOnUse" height="69.7495" width="42.5452" x="453.501" y="238.785"><feFlood flood-opacity="0" result="BackgroundImageFix"/><feBlend in="SourceGraphic" in2="BackgroundImageFix" mode="normal" result="shape"/><feGaussianBlur result="effect1_foregroundBlur_2169_25185" stdDeviation="5.34028"/></filter><filter id="i" color-interpolation-filters="sRGB" filterUnits="userSpaceOnUse" height="91.1669" width="121.965" x="132.629" y="182.146"><feFlood flood-opacity="0" result="BackgroundImageFix"/><feBlend in="SourceGraphic" in2="BackgroundImageFix" mode="normal" result="shape"/><feColorMatrix in="SourceAlpha" result="hardAlpha" type="matrix" values="0 0 0 0 0 0 0 0 0 0 0 0 0 0 0 0 0 0 127 0"/><feOffset dx="-13.3507" dy="10.6806"/><feGaussianBlur stdDeviation="5.34028"/><feComposite in2="hardAlpha" k2="-1" k3="1" operator="arithmetic"/><feColorMatrix type="matrix" values="0 0 0 0 0.942074 0 0 0 0 0.942074 0 0 0 0 0.942074 0 0 0 0.25 0"/><feBlend in2="shape" mode="normal" result="effect1_innerShadow_2169_25185"/><feColorMatrix in="SourceAlpha" result="hardAlpha" type="matrix" values="0 0 0 0 0 0 0 0 0 0 0 0 0 0 0 0 0 0 127 0"/><feOffset dx="16.0209" dy="-10.6806"/><feGaussianBlur stdDeviation="5.34028"/><feComposite in2="hardAlpha" k2="-1" k3="1" operator="arithmetic"/><feColorMatrix type="matrix" values="0 0 0 0 0 0 0 0 0 0.386749 0 0 0 0 0.615283 0 0 0 0.7 0"/><feBlend in2="effect1_innerShadow_2169_25185" mode="normal" result="effect2_innerShadow_2169_25185"/></filter><filter id="j" color-interpolation-filters="sRGB" filterUnits="userSpaceOnUse" height="46.9774" width="52.2054" x="152.493" y="213.84"><feFlood flood-opacity="0" result="BackgroundImageFix"/><feBlend in="SourceGraphic" in2="BackgroundImageFix" mode="normal" result="shape"/><feGaussianBlur result="effect1_foregroundBlur_2169_25185" stdDeviation="5.34028"/></filter><filter id="k" color-interpolation-filters="sRGB" filterUnits="userSpaceOnUse" height="70.9016" width="44.3245" x="173.416" y="197.285"><feFlood flood-opacity="0" result="BackgroundImageFix"/><feBlend in="SourceGraphic" in2="BackgroundImageFix" mode="normal" result="shape"/><feGaussianBlur result="effect1_foregroundBlur_2169_25185" stdDeviation="5.34028"/></filter><filter id="l" color-interpolation-filters="sRGB" filterUnits="userSpaceOnUse" height="113.181" width="181.375" x="258.877" y="126.947"><feFlood flood-opacity="0" result="BackgroundImageFix"/><feColorMatrix in="SourceAlpha" result="hardAlpha" type="matrix" values="0 0 0 0 0 0 0 0 0 0 0 0 0 0 0 0 0 0 127 0"/><feOffset dx=".33" dy="3.67"/><feComposite in2="hardAlpha" operator="out"/><feColorMatrix type="matrix" values="0 0 0 0 0.0156863 0 0 0 0 0.45098 0 0 0 0 0.709804 0 0 0 1 0"/><feBlend in2="BackgroundImageFix" mode="normal" result="effect1_dropShadow_2169_25185"/><feBlend in="SourceGraphic" in2="effect1_dropShadow_2169_25185" mode="normal" result="shape"/><feColorMatrix in="SourceAlpha" result="hardAlpha" type="matrix" values="0 0 0 0 0 0 0 0 0 0 0 0 0 0 0 0 0 0 127 0"/><feOffset dx="-5.34028" dy="5.34028"/><feGaussianBlur stdDeviation="4.00521"/><feComposite in2="hardAlpha" k2="-1" k3="1" operator="arithmetic"/><feColorMatrix type="matrix" values="0 0 0 0 0.804733 0 0 0 0 0.895868 0 0 0 0 0.949235 0 0 0 0.3 0"/><feBlend in2="shape" mode="normal" result="effect2_innerShadow_2169_25185"/></filter><filter id="m" color-interpolation-filters="sRGB" filterUnits="userSpaceOnUse" height="42.2542" width="96.3388" x="280.345" y="199.907"><feFlood flood-opacity="0" result="BackgroundImageFix"/><feBlend in="SourceGraphic" in2="BackgroundImageFix" mode="normal" result="shape"/><feColorMatrix in="SourceAlpha" result="hardAlpha" type="matrix" values="0 0 0 0 0 0 0 0 0 0 0 0 0 0 0 0 0 0 127 0"/><feOffset dx="10.6806" dy="-10.6806"/><feGaussianBlur stdDeviation="4.00521"/><feComposite in2="hardAlpha" k2="-1" k3="1" operator="arithmetic"/><feColorMatrix type="matrix" values="0 0 0 0 0 0 0 0 0 0 0 0 0 0 0 0 0 0 0.25 0"/><feBlend in2="shape" mode="normal" result="effect1_innerShadow_2169_25185"/><feColorMatrix in="SourceAlpha" result="hardAlpha" type="matrix" values="0 0 0 0 0 0 0 0 0 0 0 0 0 0 0 0 0 0 127 0"/><feOffset dx="-2.67014" dy="2.67014"/><feGaussianBlur stdDeviation="2.67014"/><feComposite in2="hardAlpha" k2="-1" k3="1" operator="arithmetic"/><feColorMatrix type="matrix" values="0 0 0 0 0.93916 0 0 0 0 0.93916 0 0 0 0 0.93916 0 0 0 0.25 0"/><feBlend in2="effect1_innerShadow_2169_25185" mode="normal" result="effect2_innerShadow_2169_25185"/></filter><filter id="n" color-interpolation-filters="sRGB" filterUnits="userSpaceOnUse" height="60.9442" width="50.9064" x="367.567" y="161.583"><feFlood flood-opacity="0" result="BackgroundImageFix"/><feColorMatrix in="SourceAlpha" result="hardAlpha" type="matrix" values="0 0 0 0 0 0 0 0 0 0 0 0 0 0 0 0 0 0 127 0"/><feOffset dx="-.34" dy="2.34"/><feComposite in2="hardAlpha" operator="out"/><feColorMatrix type="matrix" values="0 0 0 0 0.021131 0 0 0 0 0.317238 0 0 0 0 0.492708 0 0 0 1 0"/><feBlend in2="BackgroundImageFix" mode="normal" result="effect1_dropShadow_2169_25185"/><feBlend in="SourceGraphic" in2="effect1_dropShadow_2169_25185" mode="normal" result="shape"/></filter><filter id="o" color-interpolation-filters="sRGB" filterUnits="userSpaceOnUse" height="60.9442" width="50.9064" x="282.246" y="148.921"><feFlood flood-opacity="0" result="BackgroundImageFix"/><feColorMatrix in="SourceAlpha" result="hardAlpha" type="matrix" values="0 0 0 0 0 0 0 0 0 0 0 0 0 0 0 0 0 0 127 0"/><feOffset dx="-.34" dy="2.34"/><feComposite in2="hardAlpha" operator="out"/><feColorMatrix type="matrix" values="0 0 0 0 0.021131 0 0 0 0 0.317238 0 0 0 0 0.492708 0 0 0 1 0"/><feBlend in2="BackgroundImageFix" mode="normal" result="effect1_dropShadow_2169_25185"/><feBlend in="SourceGraphic" in2="effect1_dropShadow_2169_25185" mode="normal" result="shape"/></filter><filter id="p" color-interpolation-filters="sRGB" filterUnits="userSpaceOnUse" height="52.0777" width="44.1232" x="370.958" y="165.513"><feFlood flood-opacity="0" result="BackgroundImageFix"/><feColorMatrix in="SourceAlpha" result="hardAlpha" type="matrix" values="0 0 0 0 0 0 0 0 0 0 0 0 0 0 0 0 0 0 127 0"/><feOffset dx="-.34" dy="1.33507"/><feComposite in2="hardAlpha" operator="out"/><feColorMatrix type="matrix" values="0 0 0 0 0 0 0 0 0 0 0 0 0 0 0 0 0 0 1 0"/><feBlend in2="BackgroundImageFix" mode="normal" result="effect1_dropShadow_2169_25185"/><feBlend in="SourceGraphic" in2="effect1_dropShadow_2169_25185" mode="normal" result="shape"/></filter><filter id="q" color-interpolation-filters="sRGB" filterUnits="userSpaceOnUse" height="52.0777" width="44.1232" x="285.638" y="152.851"><feFlood flood-opacity="0" result="BackgroundImageFix"/><feColorMatrix in="SourceAlpha" result="hardAlpha" type="matrix" values="0 0 0 0 0 0 0 0 0 0 0 0 0 0 0 0 0 0 127 0"/><feOffset dx="-.34" dy="1.33507"/><feComposite in2="hardAlpha" operator="out"/><feColorMatrix type="matrix" values="0 0 0 0 0 0 0 0 0 0 0 0 0 0 0 0 0 0 1 0"/><feBlend in2="BackgroundImageFix" mode="normal" result="effect1_dropShadow_2169_25185"/><feBlend in="SourceGraphic" in2="effect1_dropShadow_2169_25185" mode="normal" result="shape"/></filter><filter id="r" color-interpolation-filters="sRGB" filterUnits="userSpaceOnUse" height="456.561" width="619.936" x="2.43404" y="238.219"><feFlood flood-opacity="0" result="BackgroundImageFix"/><feBlend in="SourceGraphic" in2="BackgroundImageFix" mode="normal" result="shape"/><feColorMatrix in="SourceAlpha" result="hardAlpha" type="matrix" values="0 0 0 0 0 0 0 0 0 0 0 0 0 0 0 0 0 0 127 0"/><feOffset dx="-7.77299" dy="-10.364"/><feGaussianBlur stdDeviation="6.47749"/><feComposite in2="hardAlpha" k2="-1" k3="1" operator="arithmetic"/><feColorMatrix type="matrix" values="0 0 0 0 0.314602 0 0 0 0 0.388265 0 0 0 0 0 0 0 0 0.7 0"/><feBlend in2="shape" mode="normal" result="effect1_innerShadow_2169_25185"/><feColorMatrix in="SourceAlpha" result="hardAlpha" type="matrix" values="0 0 0 0 0 0 0 0 0 0 0 0 0 0 0 0 0 0 127 0"/><feOffset dx="7.77299" dy="12.955"/><feGaussianBlur stdDeviation="6.47749"/><feComposite in2="hardAlpha" k2="-1" k3="1" operator="arithmetic"/><feColorMatrix type="matrix" values="0 0 0 0 1 0 0 0 0 1 0 0 0 0 1 0 0 0 0.25 0"/><feBlend in2="effect1_innerShadow_2169_25185" mode="normal" result="effect2_innerShadow_2169_25185"/></filter><linearGradient id="s" gradientUnits="userSpaceOnUse" x1="399.009" x2="374.141" y1="119.235" y2="46.8467"><stop offset=".0383793" stop-color="#1fabfe"/><stop offset=".306853" stop-color="#1dabff"/><stop offset=".444096" stop-color="#3eb7fe"/><stop offset=".840197" stop-color="#a5deff"/><stop offset=".979167" stop-color="#c4e9ff"/></linearGradient><linearGradient id="t" gradientUnits="userSpaceOnUse" x1="93.9135" x2="223.618" y1="34.5525" y2="214.75"><stop offset="0" stop-color="#8bd4ff"/><stop offset=".458754" stop-color="#00a1ff"/><stop offset=".862585" stop-color="#0076bb"/><stop offset=".979167" stop-color="#005d94"/></linearGradient><linearGradient id="u" gradientUnits="userSpaceOnUse" x1="319.741" x2="328.372" y1="280.319" y2="363.62"><stop offset="0" stop-color="#f7f7f7"/><stop offset="1" stop-color="#777878"/></linearGradient><linearGradient id="v"><stop offset="0" stop-color="#a4d9fa"/><stop offset="1" stop-color="#018fe2"/></linearGradient><radialGradient id="w" cx="0" cy="0" gradientTransform="matrix(38.66009238 60.21997625 -52.90932675 33.96679288 460.078 248.541)" gradientUnits="userSpaceOnUse" r="1" xlink:href="#v"/><radialGradient id="x" cx="0" cy="0" gradientTransform="matrix(-54.48225006 46.39755069 -40.7649309 -47.86815523 227.12 213.971)" gradientUnits="userSpaceOnUse" r="1" xlink:href="#v"/><linearGradient id="y" gradientUnits="userSpaceOnUse" x1="332.657" x2="328.43" y1="142.509" y2="219.31"><stop offset="0" stop-color="#99daff"/><stop offset="1" stop-color="#31b3ff"/></linearGradient><linearGradient id="z" gradientUnits="userSpaceOnUse" x1="313.478" x2="303.795" y1="239.636" y2="243.459"><stop offset="0" stop-color="#332115"/><stop offset="1" stop-color="#58473d"/></linearGradient><linearGradient id="A" gradientUnits="userSpaceOnUse" x1="334.737" x2="346.339" y1="231.745" y2="251.024"><stop offset="0" stop-color="#514036"/><stop offset="1" stop-color="#322015"/></linearGradient><radialGradient id="B" cx="0" cy="0" gradientTransform="matrix(10.04552216 19.39767163 -53.38047072 27.64428184 320.022 216.8)" gradientUnits="userSpaceOnUse" r="1"><stop offset="0" stop-color="#46342a"/><stop offset="1" stop-color="#40291a"/></radialGradient><linearGradient id="C" gradientUnits="userSpaceOnUse" x1="307.08" x2="311.363" y1="229.238" y2="240.324"><stop offset="0" stop-color="#58473d"/><stop offset="1" stop-color="#2b1d14"/></linearGradient><linearGradient id="D" gradientUnits="userSpaceOnUse" x1="39.5154" x2="17.3066" y1="7.20993" y2="57.012"><stop offset="0" stop-color="#7aceff"/><stop offset="1" stop-color="#0473b5"/></linearGradient><linearGradient id="E" gradientUnits="userSpaceOnUse" x1="11.9758" x2="44.843" y1="32.1526" y2="26.4542"><stop offset="0" stop-color="#354048"/><stop offset="1" stop-color="#14171e"/></linearGradient><g filter="url(#a)"><g filter="url(#b)"><path d="m414.639 120.963c17.629-10.831 9.645-27.7798 1.107-29.8194 50.569-73.1574-79.881-60.1966-72.525 9.7504 17.93 10.3 57.315 28.734 71.418 20.069z" fill="url(#s)"/></g><g filter="url(#c)"><path d="m420.531 93.9892c-11.359 4.2177-17.13 5.6131-29.598 11.8058 10.686-6.7022 21.004-10.4635 24.856-14.5844 0 0 2.8.6389 4.742 2.7786z" fill="#0272b5"/></g><g filter="url(#d)"><path d="m420.531 93.9892c-11.359 4.2177-17.13 5.6131-29.598 11.8058 10.686-6.7022 21.004-10.4635 24.856-14.5844 0 0 2.8.6389 4.742 2.7786z" fill="#0272b5"/></g><g filter="url(#e)"><circle cx="132.648" cy="132.648" fill="url(#t)" r="132.648" transform="matrix(-.99293 .118698 .118698 .99293 464.252 76.5288)"/></g><path d="m266.468 236.33c28.357 50.547 122.366 52.238 148.791 17.702.734-.959 2.041-1.363 3.167-.928 57.642 22.304 3.201 106.618-86.735 93.272-78.871-11.705-129.625-97.621-68.181-111.387 1.152-.258 2.38.312 2.958 1.341z" fill="url(#u)"/><g filter="url(#f)"><path clip-rule="evenodd" d="m530.146 300.51c-8.006 8.507-24.275 7.288-40.466-3.547-.846.472-1.732.893-2.656 1.259-4.776 1.891-9.799 2.011-14.465.406-6.144 1.291-13.131-.129-17.779-8.715-7.396 10.261-22.947 3.681-20.098-15.514 7.775-22.798 22.339-39.21 35.046-40.903 11.54-3.172 29.597 3.691 44.928 18.119 19.103 17.978 25.175 38.604 15.49 48.895z" fill="url(#w)" fill-rule="evenodd"/></g><g filter="url(#g)"><path d="m496.267 296.148c1.901 1.378 6.695 5.522 9.857 5.094 3.588-2.121 6.569-1.024 6.227-3.549s-11.102-24.208-23.661-29.443z" fill="#0272b5"/></g><g filter="url(#h)"><path d="m464.181 297.485c33.966 3.867 20.518-23.43 4.954-48.02 3.499 25.852 1.534 31.982-4.954 48.02z" fill="#0272b5"/></g><g filter="url(#i)"><path clip-rule="evenodd" d="m144.98 243.352c5.191 10.466 21.113 14.023 39.752 8.357.672.698 1.398 1.358 2.176 1.977 4.022 3.196 8.793 4.769 13.724 4.589 5.505 3.019 12.603 3.69 19.544-3.177 4.097 11.967 20.889 10.186 23.737-9.009-.82-24.073-9.99-44.007-21.658-49.318-10.121-6.386-29.393-5.063-48.253 4.291-23.5 11.656-35.301 29.63-29.022 42.29z" fill="url(#x)" fill-rule="evenodd"/></g><g filter="url(#j)"><path d="m179.146 247.966c-2.191.707-7.902 3.105-10.804 1.777-2.845-3.012-5.99-2.882-4.973-5.106 1.017-2.223 17.226-19.006 30.648-20.116z" fill="#0272b5"/></g><g filter="url(#k)"><path d="m199.755 257.506c-28.847-17.151-12.693-44.482 7.305-49.541-10.535 12.643-7.83 36.767-7.305 49.541z" fill="#0272b5"/></g><g filter="url(#l)"><path d="m342.419 217.829c-140.565 30.718-64.127-148.4932 15.6-71.482 102.052-48.8853 121.541 145.328-15.6 71.482z" fill="url(#y)"/></g><path d="m311.052 241.223c6.196-1.277 18.583-5.169 27.358-5.487-10.828 8.873-33.034 26.3-35.231 25.022-2.745-1.597 2.637-11.459 7.873-19.535z" fill="url(#z)"/><path d="m358.742 250.736c10.61-6.927 11.009-16.836 9.911-23.174-3.493-.088-27.621 8.495-32.503 9.908-20.849 6.036-20.205 14.231-32.427 23.339 23.147-11.324 37.195 1.566 55.019-10.073z" fill="url(#A)"/><g filter="url(#m)"><path d="m339.593 207.978c18.738-1.017 27.264 11.037 29.081 19.625-7.554 8.671-25.183 10.737-32.418 11.584-9.043 1.06-21.846-.851-29.948-2.673-8.102-1.823-25.539-12.358-23.052-14.782 2.488-2.423 14.722-1.725 28.813-3.376s11.585-9.513 27.524-10.378z" fill="url(#B)"/></g><path d="m312.467 235.705c5.828 1.705 10.853 5.345 28.243 1.468-31.785 10.76-57.76-.546-57.692-15.095 4.777-2.905 22.164 11.496 29.449 13.627z" fill="url(#C)"/><g filter="url(#n)"><ellipse cx="25.2477" cy="29.3297" fill="url(#D)" rx="25.2477" ry="29.3297" transform="matrix(-.996182 -.0872978 -.0872978 .996182 420.902 163.871)"/></g><g filter="url(#o)"><ellipse cx="25.2477" cy="29.3297" fill="url(#D)" rx="25.2477" ry="29.3297" transform="matrix(-.996182 -.0872978 -.0872978 .996182 335.581 151.21)"/></g><g filter="url(#p)"><ellipse cx="21.8608" cy="25.3952" fill="url(#E)" rx="21.8608" ry="25.3952" transform="matrix(-.996182 -.0872978 -.0872978 .996182 417.184 167.494)"/></g><g filter="url(#q)"><ellipse cx="21.8608" cy="25.3952" fill="url(#E)" rx="21.8608" ry="25.3952" transform="matrix(-.996182 -.0872978 -.0872978 .996182 331.863 154.833)"/></g><g fill="#fff"><circle cx="6.06486" cy="6.06486" r="6.06486" transform="matrix(-.989145 .146943 .146943 .989145 396.43 196.585)"/><circle cx="6.06486" cy="6.06486" r="6.06486" transform="matrix(-.989145 .146943 .146943 .989145 311.108 183.924)"/></g></g><g filter="url(#r)"><path clip-rule="evenodd" d="m43.7363 312.716c6.0915-41.048 44.3082-69.401 85.3567-63.309l421.388 62.533c41.049 6.091 69.383 44.331 63.292 85.38l-6.45 43.466c-38.405-5.699-74.159 20.814-79.858 59.219s20.814 74.158 59.219 79.858l-5.614 37.83c-6.092 41.048-44.309 69.4-85.357 63.309l-421.3881-62.533c-41.0485-6.092-69.38511-44.317-63.2936-85.366l5.6144-37.833h.0006c38.4048 5.699 74.1582-20.814 79.8574-59.219 5.6993-38.405-20.8139-74.158-59.2188-79.857h-.0006z" fill="#cfff00" fill-rule="evenodd"/></g><g fill="#000"><path d="m153.795 438.516 3.103-68.57 42.005 1.901-.651 14.385-25.222-1.141-.651 14.385 20.907.946-.651 14.386-20.907-.946-1.15 25.414zm51.868-15.911 2.279-50.349 16.591.751-2.179 48.143c-.213 4.699.577 6.368 4.317 6.537 1.055.048 2.018-.004 2.018-.004l-.651 14.385s-2.314.183-5 .062c-8.823-.399-18.126-2.934-17.375-19.525zm31.96 2.311 1.449-32.032 16.591.751-1.31 28.962c-.209 4.604 1.527 6.604 4.979 6.76 7.097.322 10.735-5.76 11.07-13.145l.989-21.865 16.591.751-2.235 49.389-15.92-.72.196-4.316c.073-1.63.33-3.06.33-3.06l-.191-.009c-2.924 5.153-9.21 8.136-15.827 7.837-9.782-.443-17.342-5.398-16.712-19.303zm64.703 2.063.785-17.359-6.329-.286.586-12.947 6.809.308.642-14.193 16.112.729-.643 14.193 10.358.469-.586 12.947-10.357-.469-.686 15.153c-.252 5.562 5.372 6.585 8.536 6.728 1.343.061 2.21.004 2.21.004l-.65 14.386s-1.836.205-4.521.083c-7.864-.356-23.017-3.155-22.266-19.746zm40.802 1.846.785-17.358-6.329-.287.586-12.946 6.809.308.642-14.194 16.112.729-.643 14.194 10.358.468-.586 12.947-10.357-.469-.686 15.153c-.252 5.562 5.372 6.586 8.536 6.729 1.343.06 2.21.004 2.21.004l-.65 14.385s-1.836.205-4.521.084c-7.864-.356-23.017-3.156-22.266-19.747zm35.055-4.948c.656-14.482 10.95-25.355 26.869-24.635 14.577.66 22.365 11.198 21.744 24.912-.073 1.631-.618 5.162-.618 5.162l-31.168-1.411c.974 6.099 5.835 9.105 11.109 9.344 7.097.321 13.844-4.371 13.844-4.371l5.613 11.882s-8.286 6.833-21.424 6.238c-17.646-.798-26.563-13.983-25.969-27.121zm17.641-5.449 14.481.656c.169-3.74-2.268-7.214-6.2-7.392-4.796-.217-7.253 3.131-8.281 6.736zm39.825 32.842 2.235-49.389 15.92.72-.377 8.344c-.074 1.63-.331 3.06-.331 3.06l.192.009c2.413-6.618 8.899-11.898 16.283-11.564.959.043 1.909.278 1.909.278l-.737 16.304s-1.33-.349-3.344-.44c-3.932-.178-10.414.778-13.145 8.054-.658 1.796-1.046 3.989-1.167 6.674l-.847 18.701zm-212.987 86.461 3.103-68.57 24.359 1.102c21.578.976 34.819 14.165 33.843 35.742-.977 21.578-15.368 33.804-36.946 32.828zm17.434-13.626 6.905.312c11.604.525 19.013-6.058 19.608-19.197.59-13.043-6.491-20.09-17.807-20.602l-6.905-.312zm50.127 1.884c.651-14.386 21.727-15.066 29.399-14.718l.672.03.039-.863c.186-4.124-2.918-5.61-7.042-5.796-6.233-.282-13.543 4.096-13.543 4.096l-5.224-11.961s8.826-6.039 21.005-5.488c13.906.629 21.907 8.583 21.338 21.146l-1.375 30.401-15.153-.685.135-2.973c.073-1.631.33-3.061.33-3.061l-.191-.008s-3.97 7.028-14.328 6.559c-9.206-.417-16.505-6.897-16.062-16.679zm16.726-.108c-.104 2.301 1.252 4.189 4.512 4.336 4.316.195 8.365-4.33 8.547-8.358l.048-1.055-1.535-.069c-5.274-.239-11.385 1.022-11.572 5.146zm34.212 33.933 5.825-11.941s2.603 1.944 5.001 2.052c2.685.122 6.268-.485 8.185-4.627l1.063-2.258-18.811-49.381 18.797.851 6.26 23.059c.742 2.724 1.475 7.754 1.475 7.754l.192.009s1.172-4.656 1.965-7.311l7.275-22.734 18.125.82-22.709 53.748c-4.623 10.842-13.427 14.288-21.291 13.932-6.522-.295-11.352-3.973-11.352-3.973z"/><path d="m121.358 576.362 17.735-18.962c1.491-1.599 2.598-2.243 2.598-2.243l.011-.079s-.526.002-1.95-.209l-11.633-1.726 1.522-4.263 19.309 2.865-1.241 3.456-20.733 21.995zm19.127 2.838 1.701-4.923 5.065.751-1.741 4.918zm20.885 3.1 9.629-27.283 4.827.717 5.11 17.338c.511 1.734.818 4.569.818 4.569l.079.012s.637-2.655 1.2-4.27l5.573-15.753 5.064.752-9.629 27.282-4.827-.716-5.076-17.293c-.505-1.773-.858-4.575-.858-4.575l-.079-.012s-.637 2.655-1.2 4.27l-5.567 15.713zm30.572-4.117c1.04-7.004 7.981-11.271 14.272-10.337 5.817.863 9.397 5.074 8.61 10.376-1.051 7.082-8.065 11.298-14.317 10.371-5.777-.858-9.363-5.029-8.565-10.41zm5.1.514c-.446 3.007 1.33 5.211 4.178 5.634 3.601.535 7.79-2.079 8.453-6.55.441-2.967-1.284-5.245-4.132-5.668-3.601-.534-7.841 2.152-8.499 6.584zm22.45 12.228-.368-20.678 4.985.739-.12 12.801c.007.77-.294 3.071-.294 3.071l.079.011s.949-1.759 1.758-2.853l8.469-11.562 5.341.793-14.152 18.523zm17.426-5.785c1.016-6.845 6.795-11.73 13.522-10.731 5.42.804 7.602 4.363 6.938 8.834-.258 1.741-1.288 3.772-1.288 3.772l-13.887-2.061c-.081.271-.116.508-.152.746-.381 2.571 1.06 4.848 4.305 5.329 3.244.482 6.58-1.288 6.58-1.288l.776 4.038s-3.796 2.146-8.267 1.482c-6.291-.933-9.249-5.254-8.527-10.121zm6.587-3.511 8.784 1.303s.143-.423.208-.858c.311-2.097-.813-3.518-2.712-3.8-2.572-.381-4.921 1.009-6.28 3.355zm13.672 14.888 6.911-19.598 4.867.723-.758 2.111c-.27.728-.676 1.558-.676 1.558l.079.012c1.566-1.83 4.551-3.692 7.717-3.223 3.205.476 4.649 2.187 4.725 4.948l.079.011c1.747-1.965 4.929-3.514 8.015-3.056 3.522.522 5.451 2.507 4.893 6.266-.123.831-.377 1.723-.727 2.723l-4.263 12.105-4.986-.74 4.063-11.569c.269-.728.385-1.237.462-1.751.211-1.424-.202-2.456-1.903-2.709-3.245-.481-6.232 2.755-7.479 6.25l-3.056 8.605-5.025-.746 4.102-11.563c.27-.728.386-1.237.468-1.791.205-1.385-.168-2.411-1.87-2.663-3.165-.47-6.299 2.664-7.557 6.238l-3.056 8.605zm36.128 5.361 9.629-27.282 4.985.74-2.89 8.306c-.345.96-.745 1.749-.745 1.749l.079.012c1.643-1.535 4.193-2.37 6.567-2.018 4.827.717 7.143 4.457 6.374 9.64-1.11 7.478-7.333 11.812-12.873 10.99-2.492-.37-4.714-1.751-5.498-4.092l-.08-.011s-.139.666-.369 1.4l-.471 1.265zm7.868-7.243c-.364 2.453.524 4.647 3.293 5.058 3.007.446 6.93-2.004 7.681-7.069.417-2.809-.828-4.773-3.321-5.143-3.323-.493-6.984 2.643-7.653 7.154zm17.97 2.707c1.015-6.845 6.795-11.73 13.521-10.731 5.421.804 7.602 4.363 6.939 8.834-.259 1.741-1.288 3.772-1.288 3.772l-13.888-2.061c-.081.271-.116.508-.151.746-.382 2.571 1.06 4.848 4.304 5.329 3.245.482 6.581-1.288 6.581-1.288l.775 4.038s-3.796 2.146-8.267 1.482c-6.291-.933-9.249-5.254-8.526-10.121zm6.586-3.511 8.784 1.303s.144-.423.208-.858c.312-2.097-.812-3.518-2.711-3.8-2.572-.381-4.922 1.009-6.281 3.355zm13.672 14.888 6.912-19.598 4.827.717-1.189 3.382c-.27.728-.613 1.405-.613 1.405l.039.006c1.757-2.57 4.89-4.612 7.977-4.154.633.094 1.175.255 1.175.255l-1.723 4.799s-.463-.15-1.176-.255c-3.007-.447-7.067 2.388-8.756 7.233l-2.448 6.956zm24.914 3.697c2.016-12.762 18.832-11.359 19.836-18.124.299-2.018-1.04-3.349-3.097-3.655-3.443-.511-6.27 2.467-6.27 2.467l-3.184-3.344s4.512-4.789 10.843-3.85c4.55.675 7.943 3.969 7.256 8.598-1.392 9.378-16.083 9.462-18.203 14.485l12.898 1.914-1.522 4.263zm26.387-5.304c1.063-7.162 6.066-19.076 15.72-17.643 6.45.957 8.129 5.169 7.302 10.748-1.063 7.161-6.072 19.116-15.766 17.677-6.37-.945-8.09-5.163-7.256-10.782zm5.286.623c-.441 2.967.249 5.132 2.821 5.514 5.342.792 8.82-8.478 9.571-13.542.453-3.047-.203-5.166-2.815-5.554-5.183-.769-8.779 8.201-9.577 13.582zm16.279 11.797c2.015-12.762 18.831-11.359 19.835-18.125.3-2.017-1.039-3.348-3.097-3.654-3.442-.511-6.27 2.467-6.27 2.467l-3.184-3.344s4.512-4.79 10.843-3.85c4.55.675 7.943 3.969 7.256 8.598-1.391 9.378-16.083 9.462-18.203 14.485l12.899 1.914-1.522 4.263zm23.99-3.84 1.058-3.038 17.745-15.483 6.488.963-5.67 16.143 3.6.534-1.459 4.11-3.601-.534-2.499 7.029-5.025-.745 2.499-7.03zm7.236-3.253 7.32 1.086 2.993-8.452c.483-1.344 1.186-2.816 1.186-2.816l-.079-.012s-1.133 1.368-2.241 2.296l-9.167 7.819z"/><path d="m128.787 311.049 3.339-3.427s2.606 3.42 6.563 4.007c2.137.317 4.24-.503 4.58-2.798.746-5.025-12.638-6.122-11.358-14.747.693-4.669 5.245-7.552 10.626-6.753 5.54.822 7.942 4.251 7.942 4.251l-2.832 3.826s-2.326-2.852-5.848-3.375c-2.374-.352-4.439.757-4.733 2.735-.739 4.985 12.658 5.72 11.325 14.702-.664 4.471-4.624 7.725-10.48 6.856-6.251-.928-9.124-5.277-9.124-5.277zm26.26-16.807.663-4.471 4.986.739-.664 4.472zm-3.506 23.621 2.995-20.179 5.025.746-2.995 20.179zm10.582-8.741c.852-5.738 5.841-9.931 12.528-8.938 5.262.781 7.309 4.158 7.309 4.158l-2.727 3.113s-1.774-2.487-4.939-2.957c-3.719-.552-6.55 1.899-7.061 5.342-.505 3.402 1.514 6.694 5.352 7.264 3.403.505 6.317-1.691 6.317-1.691l1.41 3.848s-3.376 2.856-8.796 2.051c-6.687-.992-10.262-6.334-9.393-12.19zm21.528 13.506 4.169-28.092 5.025.745-1.445 9.734c-.147.989-.331 1.689-.331 1.689l.079.012c1.277-1.792 4.035-3.485 7.556-2.963 4.472.664 6.657 3.374 5.865 8.715l-1.926 12.978-4.986-.739 1.774-11.95c.364-2.453-.023-4.209-2.595-4.59-2.651-.394-4.966 1.042-6.082 3.384-.355.756-.563 1.614-.704 2.564l-1.374 9.259zm24.338-6.7c.922-6.212 5.802-9.936 11.816-9.044 5.816.864 8.313 5.561 7.521 10.903-.088.593-.407 1.921-.407 1.921l-13.927-2.067c-.206 3.568 2.254 5.794 5.261 6.24 3.244.481 6.145-1.353 6.145-1.353l1.405 3.888s-3.515 2.431-8.54 1.685c-6.687-.992-10.125-6.436-9.274-12.173zm5.672-1.706 8.823 1.31c.326-2.742-1.158-4.459-3.373-4.788-2.572-.381-4.588.937-5.45 3.478zm16.164 15.258 2.994-20.179 4.827.716-.516 3.482c-.112.752-.291 1.413-.291 1.413l.079.012c1.339-2.754 4.093-4.69 7.179-4.232.475.07.899.214.899.214l-.734 4.946s-.503-.156-1.176-.256c-2.136-.317-4.732.552-6.128 3.418-.463.942-.746 2.032-.922 3.219l-1.186 7.993zm25.266-6.562c.952-6.41 5.367-10.001 10.708-9.208 4.432.658 5.435 3.435 5.435 3.435l.079.012s.037-.521.131-1.154l1.315-8.863 5.025.746-4.169 28.092-4.748-.704.247-1.662c.111-.752.272-1.294.272-1.294l-.079-.012s-2.212 3.19-6.841 2.503c-5.46-.81-8.302-5.64-7.375-11.891zm5.065.751c-.57 3.838 1.118 6.636 4.086 7.077 2.611.387 5.346-1.148 6.009-5.619.464-3.126-.74-6.458-4.103-6.957-2.769-.411-5.399 1.503-5.992 5.499zm22.517-10.488.663-4.471 4.986.74-.664 4.471zm-3.506 23.621 2.995-20.179 5.025.746-2.995 20.179zm10.549 1.566 2.994-20.179 4.827.716-.516 3.482c-.112.752-.291 1.413-.291 1.413l.079.011c1.339-2.753 4.093-4.69 7.179-4.232.475.071.899.215.899.215l-.734 4.945s-.503-.155-1.176-.255c-2.136-.317-4.732.551-6.128 3.418-.463.942-.746 2.032-.922 3.219l-1.186 7.993zm25.266-6.562c.952-6.41 5.367-10.001 10.708-9.208 4.432.657 5.435 3.435 5.435 3.435l.079.011s.037-.52.131-1.153l1.315-8.863 5.025.746-4.169 28.092-4.748-.704.247-1.662c.111-.752.272-1.294.272-1.294l-.079-.012s-2.212 3.19-6.841 2.503c-5.46-.81-8.302-5.64-7.375-11.891zm5.065.751c-.57 3.838 1.118 6.636 4.086 7.077 2.611.387 5.346-1.148 6.009-5.619.464-3.126-.74-6.459-4.103-6.958-2.769-.411-5.399 1.504-5.992 5.5zm19.084 2.832c.922-6.212 5.802-9.936 11.816-9.043 5.816.863 8.313 5.56 7.521 10.902-.088.593-.407 1.921-.407 1.921l-13.927-2.067c-.206 3.569 2.254 5.794 5.261 6.24 3.244.481 6.145-1.353 6.145-1.353l1.405 3.889s-3.515 2.43-8.54 1.684c-6.687-.992-10.125-6.436-9.274-12.173zm5.672-1.706 8.823 1.31c.326-2.742-1.158-4.459-3.373-4.787-2.572-.382-4.588.936-5.45 3.477zm19.669-8.363.664-4.471 4.985.74-.663 4.471zm-3.505 23.621 2.994-20.179 5.025.746-2.994 20.179zm10.548 1.566 2.995-20.179 4.827.716-.346 2.334c-.112.752-.285 1.374-.285 1.374l.079.011c1.123-1.572 3.709-3.736 7.784-3.131 4.471.663 6.657 3.374 5.864 8.715l-1.926 12.978-4.985-.74 1.773-11.949c.364-2.453-.022-4.209-2.594-4.59-2.691-.4-4.921 1.008-6.031 3.31-.401.79-.615 1.688-.756 2.638l-1.374 9.258zm40.495 6.009 3.517-23.7-9.219-1.369.651-4.391 23.543 3.493-.652 4.392-9.219-1.368-3.517 23.7zm20.738-21.064.663-4.471 4.986.74-.664 4.471zm-3.505 23.621 2.994-20.179 5.025.746-2.994 20.179zm10.581-8.741c.852-5.737 5.841-9.93 12.528-8.938 5.262.781 7.309 4.158 7.309 4.158l-2.727 3.113s-1.774-2.487-4.939-2.957c-3.719-.552-6.55 1.899-7.061 5.342-.505 3.403 1.514 6.694 5.352 7.264 3.403.505 6.317-1.691 6.317-1.691l1.41 3.849s-3.376 2.855-8.796 2.051c-6.687-.993-10.262-6.335-9.393-12.191zm21.528 13.506 4.169-28.092 5.025.746-2.232 15.035 2.493.37 5.924-6.4 5.579.828-7.709 8.076-.012.079 5.517 12.141-5.776-.857-4.032-9.616-2.612-.387-1.309 8.823zm21.595-7.107c.922-6.212 5.801-9.936 11.815-9.043 5.817.863 8.314 5.56 7.521 10.902-.088.593-.406 1.921-.406 1.921l-13.927-2.067c-.206 3.569 2.254 5.794 5.261 6.24 3.244.481 6.145-1.353 6.145-1.353l1.404 3.889s-3.515 2.43-8.54 1.684c-6.686-.992-10.125-6.436-9.273-12.173zm5.672-1.706 8.823 1.31c.326-2.742-1.158-4.459-3.374-4.787-2.572-.382-4.587.936-5.449 3.477zm18.132 7.988 1.256-8.467-2.611-.387.593-3.997 2.73.406.863-5.817 4.907.728-.864 5.817 4.59.681-.593 3.996-4.59-.681-1.162 7.834c-.493 3.324 2.048 4.186 3.432 4.392.554.082.922.055.922.055l-.652 4.392s-.611.031-1.56-.11c-2.81-.417-8.265-2.076-7.261-8.842zm15.693 1.601 2.53-20.045 5.223.775-3.361 19.922zm-1.441 8.076.693-4.669 4.867.723-.693 4.669z"/></g>
</svg>
