<svg xmlns="http://www.w3.org/2000/svg" viewBox="0 0 40 48">
  <title>Apple Podcasts</title>
  <defs>
    <linearGradient id="hqZar" x1=".5" x2=".5" y2="1" gradientUnits="objectBoundingBox">
      <stop offset="0" stop-color="#f452ff"/>
      <stop offset="1" stop-color="#832bc1"/>
    </linearGradient>
  </defs>
  <path d="M37.248 32.936a8.043 8.043 0 01-5.106 4.58A16.542 16.542 0 0127.55 38h-17.1a16.544 16.544 0 01-4.593-.484 8.043 8.043 0 01-5.106-4.58A14.9 14.9 0 010 27.55v-17.1a14.9 14.9 0 01.752-5.386A8.044 8.044 0 015.857.484 16.544 16.544 0 0110.45 0h17.1a16.544 16.544 0 014.593.484 8.044 8.044 0 015.106 4.58A14.9 14.9 0 0138 10.45v17.1a14.9 14.9 0 01-.752 5.386z" fill-rule="evenodd" fill="url(#hqZar)" transform="translate(1 5)"/>
  <path d="M38.248 37.936a8.043 8.043 0 01-5.106 4.58A16.542 16.542 0 0128.55 43h-17.1a16.544 16.544 0 01-4.593-.484 8.043 8.043 0 01-5.106-4.58A14.9 14.9 0 011 32.55v-17.1a14.9 14.9 0 01.752-5.386 8.044 8.044 0 015.105-4.58A16.544 16.544 0 0111.45 5h17.1a16.544 16.544 0 014.593.484 8.044 8.044 0 015.106 4.58A14.9 14.9 0 0139 15.45v17.1a14.9 14.9 0 01-.752 5.386z" fill="none"/>
  <path d="M22.756 26.842a3.805 3.805 0 00-2.754-.987 3.805 3.805 0 00-2.754.987 1.746 1.746 0 00-.5 1.094 14.227 14.227 0 00.062 2.875c.1 1.165.287 2.718.533 4.3a16.364 16.364 0 00.446 2.168 2.15 2.15 0 002.217 1.321 2.15 2.15 0 002.218-1.322 16.328 16.328 0 00.446-2.168 65.81 65.81 0 00.533-4.3 14.226 14.226 0 00.062-2.875 1.746 1.746 0 00-.509-1.093zm-5.861-5.357a3.11 3.11 0 103.11-3.11 3.11 3.11 0 00-3.11 3.11zm3.071-12.273a13.363 13.363 0 00-4.384 25.973.179.179 0 00.237-.195 69.224 69.224 0 01-.193-1.369.46.46 0 00-.271-.362 11.653 11.653 0 119.3 0 .459.459 0 00-.27.362c-.06.452-.125.911-.193 1.368a.179.179 0 00.237.195 13.363 13.363 0 00-4.463-25.972zm-.241 6.131a7.239 7.239 0 015.239 12.515.554.554 0 00-.174.435 12.8 12.8 0 01-.015 1.526.176.176 0 00.274.156 8.952 8.952 0 10-10.075 0 .176.176 0 00.274-.156 12.81 12.81 0 01-.015-1.527.554.554 0 00-.174-.434 7.239 7.239 0 014.666-12.515z" fill="#fff"/>
</svg>