<svg viewBox="0 0 36 32" fill="none" xmlns="http://www.w3.org/2000/svg">
<path d="M7.80348 2.15399C11.9308 5.28212 16.3702 11.6246 18.0001 15.0284C19.6301 11.6249 24.0693 5.28205 28.1967 2.15399C31.1748 -0.103135 36 -1.84957 36 3.70768C36 4.81754 35.3697 13.0311 35 14.3645C33.715 19.0005 29.0325 20.1829 24.8673 19.4672C32.148 20.7182 34.0001 24.8619 30.0002 29.0056C22.4036 36.8752 19.0817 27.031 18.2301 24.5086C18.0741 24.0462 18.0011 23.8298 18 24.0138C17.9989 23.8298 17.9259 24.0462 17.7699 24.5086C16.9187 27.031 13.5968 36.8755 5.9998 29.0056C1.99985 24.8619 3.85192 20.718 11.1327 19.4672C6.96739 20.1829 2.28481 19.0005 0.999987 14.3645C0.630294 13.031 0 4.81742 0 3.70768C0 -1.84957 4.82534 -0.103135 7.80326 2.15399H7.80348Z" fill="white"/>
</svg>
