<svg viewBox="0 0 40 31" fill="none" xmlns="http://www.w3.org/2000/svg">
<path d="M25.6309 0C25.24 0.709545 24.889 1.44357 24.57 2.1939C21.5386 1.72903 18.4514 1.72903 15.4122 2.1939C15.101 1.44357 14.7421 0.709545 14.3512 0C11.5033 0.497518 8.72727 1.37017 6.09482 2.60167C0.877739 10.5046 -0.534219 18.2036 0.16778 25.7966C3.22302 28.1047 6.64525 29.8663 10.2908 30.9918C11.1124 29.8663 11.8384 28.6674 12.4606 27.4196C11.28 26.9711 10.1392 26.4083 9.04637 25.7559C9.33354 25.5438 9.61275 25.3236 9.88396 25.1115C16.2896 28.1944 23.7084 28.1944 30.1221 25.1115C30.3933 25.3399 30.6725 25.5601 30.9596 25.7559C29.8668 26.4165 28.726 26.9711 27.5375 27.4278C28.1597 28.6756 28.8856 29.8745 29.7073 31C33.3527 29.8745 36.7749 28.121 39.8304 25.813C40.6598 17.0047 38.4104 9.37094 33.8871 2.60984C31.2628 1.37834 28.4867 0.505655 25.6389 0.0163073L25.6309 0ZM13.354 21.1234C11.3837 21.1234 9.74837 19.2965 9.74837 17.0374C9.74837 14.7782 11.3199 12.9432 13.3461 12.9432C15.3723 12.9432 16.9836 14.7864 16.9517 17.0374C16.9198 19.2884 15.3643 21.1234 13.354 21.1234ZM26.644 21.1234C24.6657 21.1234 23.0463 19.2965 23.0463 17.0374C23.0463 14.7782 24.6178 12.9432 26.644 12.9432C28.6702 12.9432 30.2736 14.7864 30.2417 17.0374C30.2098 19.2884 28.6543 21.1234 26.644 21.1234Z" fill="white"/>
</svg>
