<svg xmlns="http://www.w3.org/2000/svg" viewBox="0 0 42 48">
  <title>Facebook</title>
  <path d="M17.875 43.758a20.01 20.01 0 01-12.022-6.7A19.994 19.994 0 011 24a19.876 19.876 0 011.572-7.785 19.934 19.934 0 014.286-6.357 19.935 19.935 0 016.357-4.286A19.879 19.879 0 0121 4a19.879 19.879 0 017.785 1.572 19.935 19.935 0 016.357 4.286 19.934 19.934 0 014.286 6.357A19.876 19.876 0 0141 24a19.994 19.994 0 01-4.852 13.059 20 20 0 01-12.022 6.7V29.783h4.66l.887-5.781h-5.547v-3.75a3.24 3.24 0 01.7-2.156 3.219 3.219 0 012.562-.969h2.522v-4.922a30.216 30.216 0 00-4.478-.391 7.545 7.545 0 00-5.49 2.011 7.943 7.943 0 00-2.064 5.77V24H12.8v5.781h5.079v13.976z" fill="currentColor"/>
</svg>
