<svg viewBox="0 0 33 32" fill="none" xmlns="http://www.w3.org/2000/svg">
<path fill-rule="evenodd" clip-rule="evenodd" d="M16.4059 9.20301e-07C8.55559 -0.00267584 1.86278 5.83409 0.605839 13.7791C-0.651096 21.7242 3.89911 29.4308 11.3477 31.9725C12.1426 32.1246 12.4394 31.6166 12.4394 31.1819C12.4394 30.7907 12.4261 29.5003 12.4182 28.1284C7.96679 29.12 7.02882 26.1941 7.02882 26.1941C6.30017 24.2924 5.25091 23.7926 5.25091 23.7926C3.79891 22.7738 5.35955 22.7956 5.35955 22.7956C6.96788 22.9124 7.81311 24.4853 7.81311 24.4853C9.24127 26.9928 11.557 26.2702 12.4685 25.8437C12.6143 24.7842 13.0276 24.0615 13.486 23.6513C9.94342 23.2411 6.19418 21.8339 6.19418 15.5475C6.1704 13.9147 6.76166 12.3354 7.84491 11.1383C7.67798 10.7254 7.1295 9.05737 7.99858 6.79167C7.99858 6.79167 9.34195 6.35157 12.3996 8.47329C15.0232 7.73796 17.7912 7.73796 20.4148 8.47329C23.4566 6.36244 24.8105 6.79167 24.8105 6.79167C25.6796 9.05194 25.1338 10.72 24.9669 11.1383C26.0471 12.3348 26.6364 13.9118 26.6123 15.5421C26.6123 21.8447 22.871 23.2302 19.3072 23.6377C19.8796 24.1457 20.3909 25.1455 20.3909 26.675C20.3909 28.87 20.375 30.6386 20.375 31.1765C20.375 31.6139 20.6612 32.1246 21.472 31.9643C28.9094 29.4132 33.4473 21.7113 32.1893 13.7745C30.9314 5.83763 24.2484 0.00529948 16.4059 9.20301e-07Z" fill="white"/>
</svg>
