<svg xmlns="http://www.w3.org/2000/svg" viewBox="0 0 32 48">
  <title>Google Maps</title>
  <path d="M20.5 3.39a15.06 15.06 0 0 0-4.53-.71A14.84 14.84 0 0 0 4.6 7.99l7.02 5.9Z" fill="#1a73e8"/>
  <path d="M4.6 8a14.86 14.86 0 0 0-3.48 9.53A16.43 16.43 0 0 0 2.6 24.6l9.02-10.72Z" fill="#ea4335"/>
  <path d="M16 11.86a5.69 5.69 0 0 1 4.35 9.37s4.47-5.34 8.86-10.53a14.84 14.84 0 0 0-8.7-7.31l-8.89 10.5A5.78 5.78 0 0 1 16 11.86" fill="#4285f4"/>
  <path d="M16 23.23a5.7 5.7 0 0 1-5.7-5.7 5.54 5.54 0 0 1 1.32-3.64L2.6 24.6c1.55 3.42 4.12 6.19 6.77 9.63L20.34 21.2A5.65 5.65 0 0 1 16 23.23" fill="#fbbc04"/>
  <path d="M20.15 37.85c4.96-7.76 10.73-11.27 10.73-20.3a14.9 14.9 0 0 0-1.68-6.85L9.37 34.24c.83 1.1 1.7 2.35 2.54 3.64 3.03 4.67 2.19 7.44 4.12 7.44s1.1-2.8 4.12-7.47" fill="#34a853"/>
</svg>