<svg xmlns="http://www.w3.org/2000/svg" viewBox="0 0 42 48">
  <title>Google Podcasts</title>
  <path d="M6 22.637v2.727a2.5 2.5 0 11-5 0v-2.727a2.5 2.5 0 115 0z" fill="#0066d9"/>
  <path d="M36 22.708v-.071a2.5 2.5 0 015 0v2.798a2.5 2.5 0 01-5 0v-2.727z" fill="#4285f4"/>
  <path d="M14.637 30.819v2.727a2.5 2.5 0 01-5 0v-2.727a2.5 2.5 0 015 0zm0-16.364v8.92a2.5 2.5 0 01-5 0v-8.92a2.5 2.5 0 015 0z" fill="#ea4335"/>
  <path d="M27.363 17.182a2.5 2.5 0 005 0v-2.727a2.5 2.5 0 00-5 0z" fill="#34a853"/>
  <path d="M18.5 9.227a2.5 2.5 0 005 0V6.5a2.5 2.5 0 00-5 0zm0 29.545a2.5 2.5 0 015 0V41.5a2.5 2.5 0 01-5 0z" fill="#fab908"/>
  <path d="M27.363 24.682a2.5 2.5 0 015 0v8.864a2.5 2.5 0 01-5 0z" fill="#34a853"/>
  <path d="M23.5 16.727v14.545a2.5 2.5 0 01-5 0V16.727a2.5 2.5 0 015 0z" fill="#fab908"/>
</svg>