<svg xmlns="http://www.w3.org/2000/svg" viewBox="0 0 40 48">
  <title>Instagram</title>
  <g fill="currentColor">
    <path d="M20 8.426c5.074 0 5.674.02 7.678.111a10.517 10.517 0 013.528.654 6.286 6.286 0 013.609 3.609 10.517 10.517 0 01.654 3.528c.091 2 .111 2.6.111 7.678s-.02 5.674-.111 7.678a10.517 10.517 0 01-.654 3.528 6.3 6.3 0 01-3.606 3.606 10.517 10.517 0 01-3.528.654c-2 .091-2.6.111-7.678.111s-5.675-.02-7.678-.111a10.517 10.517 0 01-3.528-.654 6.286 6.286 0 01-3.609-3.609 10.517 10.517 0 01-.654-3.528c-.091-2-.111-2.6-.111-7.678s.02-5.674.111-7.678a10.517 10.517 0 01.654-3.528 6.286 6.286 0 013.609-3.609 10.517 10.517 0 013.528-.654c2-.091 2.6-.111 7.678-.111m0-3.423c-5.16 0-5.807.022-7.834.115A13.943 13.943 0 007.556 6a9.712 9.712 0 00-5.559 5.56 13.947 13.947 0 00-.882 4.612C1.023 18.194 1 18.844 1 24.004s.022 5.807.115 7.834a13.932 13.932 0 00.882 4.61 9.719 9.719 0 005.559 5.558 13.925 13.925 0 004.612.883c2.022.092 2.674.115 7.834.115s5.807-.022 7.834-.115a13.9 13.9 0 004.609-.883 9.71 9.71 0 005.558-5.558 13.925 13.925 0 00.883-4.612c.092-2.022.115-2.674.115-7.834s-.022-5.807-.115-7.834a13.9 13.9 0 00-.883-4.609A9.719 9.719 0 0032.444 6a13.947 13.947 0 00-4.612-.882C25.81 5.026 25.16 5.003 20 5.003z"/>
    <path d="M20.004 14.246a9.756 9.756 0 109.756 9.756 9.756 9.756 0 00-9.756-9.756zm0 16.092a6.335 6.335 0 116.335-6.335 6.335 6.335 0 01-6.335 6.335zM30.143 11.58a2.28 2.28 0 11-2.28 2.28 2.28 2.28 0 012.28-2.28z"/>
  </g>
</svg>
