<svg width="33" height="32" viewBox="0 0 33 32" fill="none" xmlns="http://www.w3.org/2000/svg">
<path d="M9.77145 0.111901C8.06904 0.192221 6.90648 0.463902 5.89015 0.863263C4.83831 1.27318 3.94679 1.82327 3.05974 2.71351C2.1727 3.60375 1.62646 4.49592 1.21942 5.54936C0.825497 6.56792 0.558616 7.73145 0.483415 9.43481C0.408215 11.1382 0.391575 11.6857 0.399895 16.0307C0.408215 20.3757 0.427415 20.9203 0.509976 22.6272C0.591256 24.3293 0.861977 25.4915 1.26134 26.5082C1.6719 27.56 2.22134 28.4512 3.1119 29.3386C4.00247 30.2259 4.89399 30.7709 5.94999 31.1786C6.9676 31.5718 8.13144 31.84 9.83449 31.9146C11.5375 31.9891 12.0857 32.0064 16.4294 31.9981C20.7731 31.9898 21.32 31.9706 23.0265 31.8896C24.7331 31.8086 25.8893 31.536 26.9062 31.1386C27.9581 30.727 28.8499 30.1786 29.7366 29.2877C30.6234 28.3968 31.1693 27.504 31.576 26.4499C31.9702 25.4323 32.2381 24.2685 32.312 22.5667C32.3866 20.8589 32.4042 20.3136 32.3958 15.9692C32.3875 11.6249 32.368 11.0803 32.287 9.37401C32.2061 7.66777 31.935 6.50904 31.536 5.49176C31.1248 4.43992 30.576 3.54935 29.6858 2.66135C28.7955 1.77335 27.9021 1.22774 26.8483 0.821983C25.8301 0.428062 24.6669 0.159581 22.9638 0.0859805C21.2608 0.0123802 20.7126 -0.00649984 16.3673 0.00182018C12.022 0.0101402 11.478 0.0287003 9.77145 0.111901ZM9.95833 29.0362C8.39832 28.9683 7.55128 28.7091 6.9868 28.4922C6.23928 28.2042 5.70679 27.856 5.14423 27.2989C4.58167 26.7418 4.23607 26.2073 3.94423 25.4614C3.72503 24.8969 3.46103 24.0509 3.38807 22.4909C3.30871 20.8048 3.29207 20.2985 3.28279 16.0268C3.27351 11.7551 3.28983 11.2495 3.36375 9.56281C3.43031 8.00409 3.69111 7.15609 3.90775 6.59192C4.19575 5.84344 4.54263 5.31192 5.10103 4.74968C5.65943 4.18743 6.19224 3.84119 6.9388 3.54935C7.50264 3.32919 8.34872 3.06743 9.90809 2.99319C11.5955 2.91319 12.1011 2.89719 16.3721 2.88791C20.6432 2.87863 21.15 2.89463 22.8381 2.96887C24.3968 3.03671 25.2451 3.29495 25.8086 3.51287C26.5565 3.80087 27.0886 4.14679 27.6509 4.70616C28.2131 5.26552 28.5597 5.7964 28.8515 6.54456C29.072 7.1068 29.3338 7.95257 29.4074 9.51289C29.4877 11.2003 29.5059 11.7062 29.5136 15.9769C29.5213 20.2477 29.5062 20.7549 29.4323 22.4409C29.3642 24.0009 29.1056 24.8483 28.8883 25.4134C28.6003 26.1606 28.2531 26.6934 27.6944 27.2554C27.1357 27.8173 26.6035 28.1635 25.8566 28.4554C25.2934 28.6752 24.4464 28.9376 22.8883 29.0118C21.2009 29.0912 20.6953 29.1078 16.4227 29.1171C12.15 29.1264 11.646 29.1091 9.95865 29.0362M23.0019 7.44857C23.0025 7.82833 23.1158 8.19938 23.3273 8.51479C23.5388 8.83019 23.8391 9.07578 24.1903 9.2205C24.5414 9.36522 24.9275 9.40256 25.2998 9.3278C25.6722 9.25305 26.014 9.06955 26.282 8.80052C26.5501 8.53149 26.7323 8.18902 26.8057 7.81641C26.8791 7.4438 26.8403 7.05779 26.6943 6.70721C26.5483 6.35663 26.3016 6.05722 25.9855 5.84685C25.6693 5.63648 25.2978 5.5246 24.9181 5.52536C24.409 5.52638 23.9211 5.72955 23.5618 6.0902C23.2024 6.45086 23.001 6.93946 23.0019 7.44857ZM8.18264 16.016C8.1916 20.5536 11.8767 24.2237 16.4134 24.215C20.95 24.2064 24.6227 20.5216 24.6141 15.984C24.6054 11.4463 20.9193 7.77529 16.382 7.78425C11.8447 7.79321 8.174 11.479 8.18264 16.016ZM11.0646 16.0102C11.0625 14.9553 11.3732 13.9236 11.9576 13.0453C12.5419 12.1671 13.3735 11.4818 14.3472 11.0762C15.321 10.6706 16.3932 10.5629 17.4282 10.7666C18.4632 10.9704 19.4145 11.4764 20.1619 12.2209C20.9092 12.9653 21.4191 13.9146 21.6269 14.9488C21.8348 15.983 21.7313 17.0555 21.3295 18.0309C20.9278 19.0063 20.2458 19.8406 19.3699 20.4284C18.494 21.0162 17.4634 21.331 16.4086 21.3331C15.7082 21.3346 15.0143 21.198 14.3667 20.9313C13.719 20.6646 13.1302 20.2729 12.634 19.7786C12.1377 19.2843 11.7437 18.6971 11.4744 18.0505C11.2051 17.4039 11.0659 16.7106 11.0646 16.0102Z" fill="white"/>
</svg>
