<svg width="33" height="32" viewBox="0 0 33 32" fill="none" xmlns="http://www.w3.org/2000/svg">
<path fill-rule="evenodd" clip-rule="evenodd" d="M27.6023 27.204H22.7962V18.718C22.7962 17.438 21.6802 16.32 20.3982 16.32C19.1162 16.32 18.0002 17.438 18.0002 18.718V27.204H13.1941V12.796H18.0002V14.718C18.7962 13.438 20.5542 12.476 22.0002 12.476C25.0382 12.476 27.6023 15.04 27.6023 18.078V27.204ZM7.60205 10.078C6.00003 10.078 4.71801 8.796 4.71801 7.204C4.71801 5.602 6.00003 4.32 7.60205 4.32C9.19407 4.32 10.4761 5.602 10.4761 7.204C10.4761 8.796 9.19407 10.078 7.60205 10.078ZM5.19401 27.204H10.0001V12.796H5.19401V27.204ZM29.1943 0H3.60199C1.83597 0 0.397949 1.438 0.397949 3.204V28.796C0.397949 30.562 1.83597 32 3.60199 32H29.1943C30.9603 32 32.3983 30.562 32.3983 28.796V3.204C32.3983 1.438 30.9603 0 29.1943 0Z" fill="white"/>
</svg>
