<svg viewBox="0 0 31 32" fill="none" xmlns="http://www.w3.org/2000/svg">
<path fill-rule="evenodd" clip-rule="evenodd" d="M21.7479 24.3902C25.7574 23.9114 29.2484 21.441 29.6872 19.1837C30.3786 15.6278 30.3215 10.5061 30.3215 10.5061C30.3215 3.56433 25.7734 1.52959 25.7734 1.52959C23.4802 0.476359 19.5425 0.0334469 15.4514 0H15.3509C11.2599 0.0334469 7.3247 0.476359 5.03135 1.52959C5.03135 1.52959 0.483094 3.56433 0.483094 10.5061C0.483094 10.9269 0.480919 11.3696 0.478654 11.8304C0.472366 13.1101 0.465389 14.5299 0.502403 16.0119C0.667569 22.8006 1.74701 29.4912 8.02364 31.1525C10.9177 31.9185 13.4024 32.0788 15.4035 31.9688C19.0325 31.7676 21.0696 30.6737 21.0696 30.6737L20.95 28.0407C20.95 28.0407 18.3567 28.8584 15.4442 28.7588C12.5586 28.6598 9.51237 28.4476 9.04566 24.9048C9.00256 24.5936 8.98101 24.2609 8.98101 23.9114C8.98101 23.9114 11.8137 24.6038 15.4035 24.7683C17.5986 24.869 19.6571 24.6397 21.7479 24.3902ZM24.9568 19.4499V11.0446C24.9568 9.32674 24.5194 7.96163 23.641 6.95167C22.7348 5.94171 21.5483 5.42398 20.0756 5.42398C18.3714 5.42398 17.0809 6.07895 16.2279 7.38907L15.3982 8.77952L14.5688 7.38907C13.7155 6.07895 12.4251 5.42398 10.721 5.42398C9.24815 5.42398 8.06165 5.94171 7.15565 6.95167C6.27707 7.96163 5.83967 9.32674 5.83967 11.0446V19.4499H9.16971V11.2917C9.16971 9.57191 9.8933 8.69901 11.3406 8.69901C12.9409 8.69901 13.7431 9.73448 13.7431 11.782V16.2475H17.0535V11.782C17.0535 9.73448 17.8555 8.69901 19.4558 8.69901C20.9032 8.69901 21.6268 9.57191 21.6268 11.2917V19.4499H24.9568Z" fill="white"/>
</svg>
