<svg xmlns="http://www.w3.org/2000/svg" viewBox="0 0 47 48">
  <title>Meetup</title>
  <path d="M22.392 45.79h0a1.211 1.211 0 01-1-.523 1.212 1.212 0 011-1.9 1.209 1.209 0 011 .522 1.212 1.212 0 01-1 1.9zm11.891-2.059h0a1.982 1.982 0 01-.9-.217 1.963 1.963 0 01.9-3.709 1.98 1.98 0 01.9.217 1.963 1.963 0 01-.9 3.71zm-16.23-.964h0a7.348 7.348 0 01-3.348-.807 7.274 7.274 0 01-3.958-6.313 7.068 7.068 0 01-1.344-.359 6.843 6.843 0 01-1.246-.621 6.64 6.64 0 01-2.031-2.016 6.757 6.757 0 01-1.023-4.594 6.838 6.838 0 012.156-4.12 6.356 6.356 0 01-.834-4.624 6.3 6.3 0 01.89-2.181 6.18 6.18 0 014.445-2.783 9.427 9.427 0 013.466-4.422 9.346 9.346 0 015.334-1.666 9.568 9.568 0 015.153 1.506 8.352 8.352 0 0111.19 8.5 4.752 4.752 0 011.362.652 4.487 4.487 0 011.107 1.1 4.578 4.578 0 01.8 3.269 4.65 4.65 0 01-1.615 2.934 8.024 8.024 0 01-.066 8.633 7.965 7.965 0 01-.956 1.2 8.076 8.076 0 01-1.207 1.022 7.762 7.762 0 01-2.2 1.054 8.157 8.157 0 01-2.325.336c-.1 0-.21 0-.314-.006a5.613 5.613 0 01-.783 1.756 5.4 5.4 0 01-4.471 2.375 5.493 5.493 0 01-.995-.091 5.563 5.563 0 01-2.694-1.322c-.051.04-.1.084-.145.127a1.907 1.907 0 01-.2.167 7.277 7.277 0 01-4.149 1.3zm10.144-21.95h.05a.634.634 0 01.486.191.589.589 0 01.119.269 1.422 1.422 0 010 .45 24.543 24.543 0 01-1.5 3.346 32.263 32.263 0 00-1.8 4.023 3.531 3.531 0 00-.062 1.282 3.722 3.722 0 00.376 1.2 3.979 3.979 0 001.788 1.758 5.83 5.83 0 001.224.372 8.707 8.707 0 001.723.192 4.085 4.085 0 001.074-.124 1.5 1.5 0 00.759-.434 1.1 1.1 0 00.216-.927 1.011 1.011 0 00-.219-.507 1.133 1.133 0 00-.416-.3 4.427 4.427 0 00-1.164-.264 4.269 4.269 0 01-1.228-.29 1.078 1.078 0 01-.644-.926c-.144-1.383.841-3.581 1.794-5.707h0c.457-1.02.889-1.983 1.2-2.852a8.864 8.864 0 00.35-1.206 2.91 2.91 0 00.06-.964 3.436 3.436 0 00-.4-1.237 2.272 2.272 0 00-.683-.749 2.6 2.6 0 00-.853-.373 4.068 4.068 0 00-.9-.11h-.173a3.966 3.966 0 00-1.071.113 2.414 2.414 0 00-.593.272l-.011.006-.058.035a.874.874 0 01-.446.163.72.72 0 01-.493-.235l-.14-.134c-.228-.218-.407-.39-.671-.6a1.588 1.588 0 00-.322-.2 1.878 1.878 0 00-.523-.152 2.455 2.455 0 00-.343-.031 2.647 2.647 0 00-.983.175 3.2 3.2 0 00-.819.579h0l-.1.088a3.396 3.396 0 00-.128.118 2.159 2.159 0 01-1.269.721.773.773 0 01-.315-.066 23.47 23.47 0 01-.562-.266c-.426-.2-1.009-.484-1.47-.684a2.355 2.355 0 00-.941-.184 3.787 3.787 0 00-1.861.543 3.678 3.678 0 00-1.356 1.313 29.578 29.578 0 00-1.657 4.339c-.6 1.832-1.167 3.741-1.544 5h0c-.168.564-.29.971-.35 1.157a3.266 3.266 0 00-.143 1.489 2.814 2.814 0 00.179.657 2.766 2.766 0 00.323.579 2.852 2.852 0 00.487.518 3.037 3.037 0 00.611.392 3.289 3.289 0 00.713.249 3.615 3.615 0 00.794.087h.182a2.952 2.952 0 00.651-.1 1.974 1.974 0 00.559-.249 2.987 2.987 0 00.95-1.122c.18-.327 1.141-2.768 2.07-5.129h0c.835-2.121 1.623-4.125 1.737-4.317a1.094 1.094 0 01.355-.339 1.068 1.068 0 01.548-.17.744.744 0 01.343.082 1.159 1.159 0 01.517 1.274 35.991 35.991 0 01-1.4 3.7h0c-.535 1.31-1.04 2.547-1.08 2.814a1.4 1.4 0 00.222 1.132 1.486 1.486 0 001.126.459h.129a1.77 1.77 0 00.967-.265 2.048 2.048 0 00.45-.39 3.221 3.221 0 00.414-.613c.1-.183.515-1.013 1.045-2.064v-.008c1.174-2.328 2.947-5.845 3.166-6.175a1.976 1.976 0 01.467-.529.768.768 0 01.467-.145zM8.627 38.642h0a.871.871 0 01-.851-.688.871.871 0 01.668-1.036.872.872 0 011.036.668.871.871 0 01-.668 1.036.875.875 0 01-.185.02zm34.2-10.822h0a1.177 1.177 0 01-1.152-.93 1.179 1.179 0 01.9-1.4 1.177 1.177 0 01.984.231 1.178 1.178 0 01-.487 2.073 1.19 1.19 0 01-.242.026zM2.874 25.286h0a1.874 1.874 0 01-.859-3.54 1.891 1.891 0 01.862-.209 1.874 1.874 0 01.859 3.54 1.891 1.891 0 01-.862.209zm42.249-3.513h0a.878.878 0 01-.857-.691.877.877 0 01.673-1.042.876.876 0 011.041.672.877.877 0 01-.672 1.042.883.883 0 01-.185.019zm-5.107-4.367h0a1.583 1.583 0 01-1.305-.684 1.584 1.584 0 011.3-2.485 1.583 1.583 0 011.3.684 1.584 1.584 0 01-1.3 2.485zm-29.993-4.77h0a1.423 1.423 0 01-1.173-.614 1.423 1.423 0 011.17-2.232 1.422 1.422 0 011.172.614 1.423 1.423 0 01-1.169 2.232zm16.164-4.849h0a1.86 1.86 0 01-1.6-.9 1.86 1.86 0 011.596-2.82 1.86 1.86 0 011.6.9 1.86 1.86 0 01-1.596 2.82zM14.103 4.861h0a1 1 0 01-.973-.787 1 1 0 01.76-1.184.994.994 0 01.832.2 1 1 0 01-.412 1.753 1 1 0 01-.207.018z" fill="currentColor"/>
</svg>