<svg width="33" height="32" viewBox="0 0 33 32" fill="none" xmlns="http://www.w3.org/2000/svg">
<path fill-rule="evenodd" clip-rule="evenodd" d="M16.3979 0C7.56139 0 0.397949 7.16344 0.397949 16C0.397949 24.8366 7.56139 32 16.3979 32C25.2345 32 32.3979 24.8366 32.3979 16C32.3979 7.16344 25.2345 0 16.3979 0ZM21.8022 8.47004C21.593 8.57036 21.4416 8.64292 21.3354 8.62522C21.0613 8.60238 20.8958 8.40429 20.6984 8.16818C20.3557 7.75813 19.9171 7.23339 18.6479 7.31272C17.7835 7.37921 17.202 7.90552 16.7154 8.34601C16.2872 8.73359 15.9324 9.05473 15.5229 8.93772C15.1939 8.8202 14.8118 8.61431 14.4199 8.40312C13.7696 8.05271 13.0924 7.68772 12.5854 7.68772C9.90389 7.74601 9.07097 9.87036 8.36247 11.6774C8.31135 11.8078 8.26087 11.9365 8.21039 12.0627C7.83539 13.0627 6.02289 18.6877 5.71039 20.1252C4.83539 23.8752 9.83539 24.9377 11.0229 22.4377C11.5384 21.3379 12.3374 19.2176 13.0354 17.3654C13.6067 15.8493 14.1103 14.5128 14.3354 14.0627L14.3409 14.0503C14.5918 13.4857 15.0293 12.5011 15.8979 12.6252C17.1316 12.808 15.9601 15.563 14.9722 17.8863C14.6088 18.7408 14.2703 19.537 14.0854 20.1252C13.5854 21.8127 15.8979 22.8127 17.1479 20.8127C17.6479 20.0627 20.0229 15.4377 20.3979 14.6877C20.431 14.6148 20.4712 14.5221 20.5177 14.4151C20.9086 13.5139 21.7407 11.5959 22.5229 11.8752C23.6058 12.269 22.479 14.2522 21.6461 15.7182C21.4214 16.1136 21.2182 16.4714 21.0854 16.7502C19.5229 19.3127 18.7104 22.7502 21.9604 24.1252C22.7104 24.5002 26.5854 25.3752 26.7729 23.6877C26.9695 22.4098 25.9293 22.2915 24.9288 22.1776C24.657 22.1467 24.3882 22.1161 24.1479 22.0627C21.6479 21.5627 24.3354 16.4377 24.9604 15.2502C24.9949 15.1763 25.0446 15.0767 25.1051 14.9554C25.8114 13.5389 27.9919 9.16641 24.7104 8.18772C23.2321 7.78455 22.3318 8.21618 21.8022 8.47004Z" fill="white"/>
</svg>
