<svg xmlns="http://www.w3.org/2000/svg" viewBox="0 0 42 48">
  <title>Spotify</title>
  <path d="M20.995 4a20 20 0 1020 19.993A20 20 0 0020.995 4zm9.17 28.845a1.247 1.247 0 01-1.715.416c-4.695-2.866-10.605-3.52-17.567-1.93a1.247 1.247 0 11-.556-2.429c7.618-1.743 14.154-.993 19.424 2.228a1.247 1.247 0 01.42 1.715zm2.448-5.445a1.562 1.562 0 01-2.149.513c-5.376-3.305-13.569-4.26-19.928-2.331a1.56 1.56 0 11-.906-2.984c7.262-2.2 16.291-1.134 22.464 2.658a1.562 1.562 0 01.525 2.144zm.21-5.672c-6.447-3.82-17.079-4.178-23.233-2.308a1.871 1.871 0 11-1.084-3.582c7.064-2.152 18.806-1.734 26.224 2.672a1.871 1.871 0 01-1.91 3.217z" fill="#1ed760"/>
</svg>
