<svg viewBox="0 0 41 32" fill="none" xmlns="http://www.w3.org/2000/svg">
<path d="M12.948 32C28.0523 32 36.3111 19.6859 36.3111 9.01361C36.3111 8.66178 36.3111 8.30995 36.2941 7.97487C37.8948 6.8356 39.2911 5.41152 40.3979 3.78639C38.9335 4.42304 37.3498 4.85864 35.681 5.05969C37.3839 4.05445 38.6781 2.47958 39.2911 0.586387C37.7074 1.50785 35.9535 2.17801 34.0804 2.5466C32.5819 0.971728 30.4533 0 28.0863 0C23.5567 0 19.8786 3.61885 19.8786 8.07539C19.8786 8.71204 19.9467 9.33194 20.1 9.91833C13.2715 9.58325 7.22639 6.36649 3.1736 1.47435C2.47543 2.66387 2.06674 4.05445 2.06674 5.5288C2.06674 8.3267 3.51417 10.8063 5.72788 12.2471C4.38262 12.2136 3.12251 11.845 2.01566 11.2419C2.01566 11.2754 2.01566 11.3089 2.01566 11.3424C2.01566 15.2628 4.84239 18.5131 8.6057 19.267C7.92456 19.4513 7.19233 19.5518 6.44307 19.5518C5.91519 19.5518 5.40434 19.5016 4.89348 19.401C5.93222 22.6178 8.9633 24.9466 12.5563 25.0136C9.74661 27.1749 6.20468 28.4649 2.35623 28.4649C1.69212 28.4649 1.04503 28.4314 0.397949 28.3476C3.99097 30.6597 8.31621 32 12.948 32Z" fill="white"/>
</svg>
