<svg xmlns="http://www.w3.org/2000/svg" viewBox="0 0 50 48">
  <title>Website</title>
  <path d="M4.56 6.2h40.88A3.56 3.56 0 0149 9.76V38.2a3.56 3.56 0 01-3.56 3.56H4.56A3.56 3.56 0 011 38.2V9.76A3.56 3.56 0 014.56 6.2z" fill="#fff"/>
  <path d="M5.78 31.98h1.76l1.07-3.62a5.5 5.5 0 00.16-.69h.02s.07.35.17.69l1.07 3.62h1.75l1.93-6.35h-1.64l-1.11 4.17c-.09.34-.14.67-.14.67h-.02s-.05-.33-.14-.67l-1.17-4.16H8.1L6.92 29.8c-.1.34-.15.67-.15.67h-.02a5.45 5.45 0 00-.13-.67l-1.11-4.17H3.85zm10.91 0h1.77l1.07-3.62a5.5 5.5 0 00.15-.69h.02s.06.35.16.69l1.07 3.62h1.76l1.93-6.35h-1.65l-1.1 4.17c-.09.34-.14.67-.14.67h-.03s-.04-.33-.13-.67l-1.17-4.16H19l-1.18 4.16-.15.67h-.03a5.45 5.45 0 00-.12-.67l-1.1-4.17h-1.68zm10.9 0h1.77l1.07-3.62a5.5 5.5 0 00.16-.69h.02s.06.35.16.69l1.07 3.62h1.76l1.93-6.35h-1.65l-1.1 4.17c-.1.34-.14.67-.14.67h-.03s-.05-.33-.13-.67l-1.17-4.16h-1.4l-1.18 4.16c-.09.34-.15.67-.15.67h-.02a5.45 5.45 0 00-.13-.67l-1.1-4.17h-1.67z"/>
  <path d="M5.45 9.76a1.78 1.78 0 11-1.78 1.77 1.78 1.78 0 011.78-1.77z" fill="#e92980"/>
  <path d="M9.89 9.76a1.78 1.78 0 11-1.78 1.77A1.78 1.78 0 019.9 9.76z" fill="#cfff00"/>
  <path d="M14.33 9.76a1.78 1.78 0 11-1.77 1.77 1.78 1.78 0 011.77-1.77z" fill="#00a1ff"/>
  <path d="M1 15.98h48v.89H1z"/>
</svg>
