<svg width="47" height="32" viewBox="0 0 47 32" fill="none" xmlns="http://www.w3.org/2000/svg">
<path fill-rule="evenodd" clip-rule="evenodd" d="M41.1098 0.955355C43.0605 1.48103 44.5964 3.02994 45.1178 4.9969C46.0652 8.56181 46.0652 16 46.0652 16C46.0652 16 46.0652 23.4379 45.1178 27.0034C44.5964 28.9701 43.0605 30.519 41.1098 31.0449C37.5745 32 23.3981 32 23.3981 32C23.3981 32 9.22159 32 5.6863 31.0449C3.73589 30.519 2.19968 28.9701 1.67834 27.0034C0.730957 23.4379 0.730957 16 0.730957 16C0.730957 16 0.730957 8.56181 1.67834 4.9969C2.19968 3.02994 3.73589 1.48103 5.6863 0.955355C9.22159 0 23.3981 0 23.3981 0C23.3981 0 37.5745 0 41.1098 0.955355ZM30.7315 16.0001L18.7313 22.6665V9.3332L30.7315 16.0001Z" fill="white"/>
</svg>
