<svg xmlns="http://www.w3.org/2000/svg" viewBox="0 0 44 48">
  <title>Play circle</title>
  <g fill="currentColor">
    <path d="M30.02 23.91L16.28 15.8v16.25z"/>
    <path d="M22 44.3a20.22 20.22 0 01-7.92-1.6 20.29 20.29 0 01-6.47-4.36 20.28 20.28 0 01-4.36-6.47 20.22 20.22 0 01-1.6-7.92 20.22 20.22 0 011.6-7.92 20.28 20.28 0 014.36-6.47 20.28 20.28 0 016.47-4.36A20.22 20.22 0 0122 3.6a20.23 20.23 0 017.92 1.6 20.29 20.29 0 016.47 4.36 20.28 20.28 0 014.36 6.47 20.22 20.22 0 011.6 7.92 20.22 20.22 0 01-1.6 7.92 20.28 20.28 0 01-4.36 6.47 20.29 20.29 0 01-6.47 4.36A20.23 20.23 0 0122 44.3zm0-36.85a16.4 16.4 0 00-11.67 4.83A16.4 16.4 0 005.5 23.95a16.4 16.4 0 004.83 11.66A16.4 16.4 0 0022 40.45a16.4 16.4 0 0011.67-4.84 16.39 16.39 0 004.83-11.66 16.4 16.4 0 00-4.83-11.67A16.4 16.4 0 0022 7.45z"/>
  </g>
</svg>